<svg width="64" height="64" viewBox="0 0 64 64" fill="none" xmlns="http://www.w3.org/2000/svg">
<path d="M49.5999 43.7571C48.7006 45.3234 47.4039 46.6247 45.8407 47.5295C44.2774 48.4343 42.5031 48.9105 40.6969 48.9101H34.7509V28.8601L26.1689 43.7621C25.2694 45.3282 23.9726 46.6292 22.4094 47.5338C20.8462 48.4384 19.072 48.9145 17.2659 48.9141H11.3599V19.3251H23.2379V39.3251L34.7499 19.3351V19.3251H46.6239V39.4071L59.0979 17.7341C59.3479 17.3028 59.4754 16.8115 59.4666 16.3131C59.4578 15.8147 59.313 15.3282 59.0479 14.9061C53.2949 5.82106 43.0949 -0.169942 31.5049 0.0040581C13.8319 0.279058 -0.0900544 14.5031 -5.43837e-05 32.1741C0.0919456 49.7671 14.3869 64.0001 31.9999 64.0001C49.6139 64.0001 63.9999 49.6751 63.9999 32.0041C63.9999 29.1581 63.6239 26.3981 62.9229 23.7671C62.7119 22.9691 61.6479 22.8231 61.2349 23.5331L49.5949 43.7531L49.5999 43.7571Z" fill="black"/>
</svg>
