<svg width="95" height="51" viewBox="0 0 95 51" fill="none" xmlns="http://www.w3.org/2000/svg">
<path d="M93.2 21.8L75.1 9C73.7 8 71.9 7.9 70.4 8.7C68.9 9.5 68 11 68 12.7V21.1H48.3L40.4 13.9C30.5 4.9 17.8 0 4.4 0C2 0 0 2 0 4.4C0 6.8 2 8.8 4.4 8.8C15.5 8.8 26.2 12.9 34.4 20.4L39.9 25.5L34.4 30.6C26.2 38.1 15.5 42.2 4.4 42.2C2 42.2 0 44.2 0 46.6C0 49 2 51 4.4 51C17.7 51 30.5 46.1 40.4 37.1L48.3 29.9H67.9V38.3C67.9 40 68.8 41.5 70.3 42.3C71 42.6 71.7 42.8 72.4 42.8C73.3 42.8 74.2 42.5 75 42L93.1 29.2C94.3 28.4 95 27 95 25.5C95 24 94.4 22.7 93.2 21.8Z" fill="white"/>
</svg>
