<svg width="62" height="62" viewBox="0 0 62 62" fill="none" xmlns="http://www.w3.org/2000/svg">
<path d="M44.7254 1.13558C35.6381 -0.378528 26.3628 -0.378528 17.2754 1.13558C13.2404 1.80845 9.51617 3.72449 6.62266 6.6162C3.72916 9.50791 1.81082 13.231 1.13545 17.2656C-0.378482 26.353 -0.378482 35.6282 1.13545 44.7156C1.80691 48.7512 3.72248 52.4762 6.61444 55.37C9.5064 58.2637 13.2302 60.1816 17.2654 60.8556C26.3534 62.3627 35.6275 62.3627 44.7154 60.8556C48.7505 60.1827 52.4747 58.2667 55.3682 55.375C58.2617 52.4833 60.1801 48.7602 60.8554 44.7256C61.612 40.188 61.9933 35.5958 61.9954 30.9956C61.9933 26.3954 61.612 21.8032 60.8554 17.2656C60.1821 13.2318 58.2657 9.50898 55.3739 6.61717C52.4821 3.72536 48.7593 1.80894 44.7254 1.13558ZM54.9454 43.7356C54.6064 45.7679 53.8096 47.6965 52.6154 49.3756L41.0754 37.8456L41.4354 37.1856C42.508 35.2048 43.0475 32.9792 43.001 30.7271C42.9545 28.475 42.3235 26.2737 41.1701 24.3388C40.0167 22.404 38.3802 20.802 36.4213 19.69C34.4623 18.578 32.248 17.9941 29.9954 17.9956C29.1998 17.9956 28.4367 18.3117 27.8741 18.8743C27.3115 19.4369 26.9954 20.1999 26.9954 20.9956C26.9954 21.7912 27.3115 22.5543 27.8741 23.1169C28.4367 23.6795 29.1998 23.9956 29.9954 23.9956C31.3799 23.9956 32.7333 24.4061 33.8844 25.1753C35.0356 25.9445 35.9328 27.0377 36.4626 28.3168C36.9924 29.5959 37.131 31.0033 36.8609 32.3612C36.5908 33.7191 35.9242 34.9664 34.9452 35.9453C33.9662 36.9243 32.7189 37.591 31.3611 37.8611C30.0032 38.1312 28.5957 37.9926 27.3167 37.4627C26.0376 36.9329 24.9443 36.0357 24.1752 34.8846C23.406 33.7334 22.9954 32.3801 22.9954 30.9956C22.9954 30.1999 22.6794 29.4369 22.1168 28.8743C21.5542 28.3117 20.7911 27.9956 19.9954 27.9956C19.1998 27.9956 18.4367 28.3117 17.8741 28.8743C17.3115 29.4369 16.9954 30.1999 16.9954 30.9956C16.9932 33.2476 17.576 35.4615 18.6868 37.4205C19.7976 39.3795 21.3982 41.0164 23.3318 42.1707C25.2655 43.3251 27.4658 43.9573 29.7173 44.0055C31.9688 44.0537 34.1942 43.5162 36.1754 42.4456L36.8354 42.0856L48.1354 53.3856C46.769 54.1518 45.2804 54.6762 43.7354 54.9356C39.5251 55.638 35.264 55.9926 30.9954 55.9956C26.7272 55.9961 22.4661 55.6449 18.2554 54.9456C15.4513 54.4794 12.8631 53.1481 10.853 51.138C8.84296 49.128 7.51166 46.5397 7.04545 43.7356C5.63932 35.3004 5.63932 26.6907 7.04545 18.2556C7.51166 15.4514 8.84296 12.8632 10.853 10.8532C12.8631 8.8431 15.4513 7.5118 18.2554 7.04558C26.6911 5.64623 35.2998 5.64623 43.7354 7.04558C46.5396 7.5118 49.1278 8.8431 51.1379 10.8532C53.1479 12.8632 54.4792 15.4514 54.9454 18.2556C55.6449 22.4662 55.9961 26.7273 55.9954 30.9956C55.996 35.2639 55.6448 39.525 54.9454 43.7356Z" fill="black"/>
</svg>
