<svg width="64" height="64" viewBox="0 0 64 64" fill="none" xmlns="http://www.w3.org/2000/svg">
<path d="M35.13 52.7799C35.91 53.5599 36.94 53.95 37.96 53.95C38.98 53.95 40.01 53.5599 40.79 52.7799C42.35 51.2199 42.35 48.69 40.79 47.12L34.91 41.24C34.3 40.63 33.96 39.8099 33.96 38.9499C33.96 38.0899 34.3 37.2699 34.91 36.6599L40.79 30.78C42.35 29.22 42.35 26.69 40.79 25.12C39.23 23.56 36.69 23.56 35.13 25.12L29.25 30.9999C27.13 33.1199 25.96 35.9499 25.96 38.9499C25.96 41.9499 27.13 44.78 29.25 46.9L35.13 52.7799Z" fill="black"/>
<path d="M49.13 57.12C47.57 58.68 47.57 61.2099 49.13 62.7799C49.91 63.5599 50.93 63.95 51.96 63.95C52.99 63.95 54.01 63.5599 54.79 62.7799L60.67 56.9C62.79 54.78 63.96 51.95 63.96 48.95C63.96 45.95 62.79 43.1199 60.67 40.9999L54.79 35.12C53.23 33.56 50.69 33.56 49.13 35.12C47.57 36.68 47.57 39.21 49.13 40.78L55.01 46.66C55.62 47.27 55.96 48.09 55.96 48.95C55.96 49.81 55.62 50.6299 55.01 51.2399L49.13 57.12Z" fill="black"/>
<path d="M53.22 2.65C48.46 -4.76837e-07 42.96 0 32 0C21.04 0 15.55 -4.76837e-07 10.78 2.65C7.36 4.55 4.55 7.36 2.65 10.78C-4.76837e-07 15.55 0 21.04 0 32C0 42.96 -4.76837e-07 48.45 2.65 53.22C4.55 56.64 7.36 59.45 10.78 61.35C14.16 63.23 18.05 63.74 22.85 63.91C22.9 63.91 22.95 63.91 23 63.91C25.14 63.91 26.92 62.21 26.99 60.05C27.07 57.84 25.34 55.99 23.14 55.91C18.77 55.75 16.39 55.32 14.67 54.36C12.56 53.18 10.82 51.44 9.64 49.33C8 46.38 8 41.58 8 32C8 22.42 8 17.62 9.64 14.67C10.82 12.56 12.56 10.82 14.67 9.64C17.62 8 22.42 8 32 8C41.58 8 46.38 8 49.33 9.64C51.44 10.82 53.18 12.56 54.36 14.67C55.32 16.39 55.75 18.77 55.91 23.14C55.99 25.35 57.84 27.06 60.05 26.99C62.26 26.91 63.98 25.06 63.9 22.85C63.73 18.05 63.23 14.16 61.34 10.77C59.44 7.36 56.63 4.55 53.21 2.64L53.22 2.65Z" fill="black"/>
</svg>
