<svg width="62" height="62" viewBox="0 0 62 62" fill="none" xmlns="http://www.w3.org/2000/svg">
<path d="M1.13545 17.2659C-0.378482 26.3532 -0.378482 35.6285 1.13545 44.7159C1.80691 48.7515 3.72248 52.4765 6.61444 55.3703C9.5064 58.264 13.2302 60.1819 17.2654 60.8559C26.3533 62.3638 35.6276 62.3638 44.7154 60.8559C48.7511 60.1844 52.4761 58.2688 55.3699 55.3769C58.2636 52.4849 60.1815 48.7611 60.8554 44.7259C61.6121 40.1883 61.9934 35.5961 61.9954 30.9959C61.9935 26.3956 61.6122 21.8034 60.8554 17.2659C60.1821 13.232 58.2657 9.50925 55.3739 6.61744C52.4821 3.72564 48.7593 1.80922 44.7254 1.13586C35.6381 -0.37862 26.3628 -0.37862 17.2754 1.13586C13.2404 1.80873 9.51616 3.72477 6.62266 6.61648C3.72916 9.50818 1.81082 13.2312 1.13545 17.2659ZM19.8654 55.1759C19.3254 55.1059 18.7954 55.0259 18.2554 54.9359C15.4545 54.4683 12.8695 53.1377 10.8616 51.1297C8.85363 49.1218 7.52296 46.5368 7.05545 43.7359C6.50182 40.3879 6.16778 37.0074 6.05545 33.6159V32.2359L7.38545 32.6159C10.346 33.4672 13.3504 34.1582 16.3854 34.6859L17.1554 34.8259L17.2054 35.6159C17.6554 42.6159 19.1254 49.1159 21.3354 53.8059L22.1254 55.4759L19.8654 55.1759ZM38.7554 36.7959C37.7954 48.1159 33.8954 55.9959 30.9954 55.9959C28.0954 55.9959 24.1954 48.1159 23.2354 36.8059L23.1354 35.6259L24.3154 35.7259C28.7613 36.0916 33.2296 36.0916 37.6754 35.7259L38.8554 35.6259L38.7554 36.7959ZM55.9454 33.6159C55.8335 37.0074 55.4995 40.388 54.9454 43.7359C54.4773 46.5382 53.1452 49.1242 51.1353 51.1323C49.1254 53.1404 46.5382 54.4702 43.7354 54.9359L42.1754 55.1659L39.9154 55.4859L40.7054 53.8059C42.9254 49.1159 44.3954 42.6459 44.8354 35.6059V34.8159L45.6154 34.6759C48.6504 34.1476 51.6547 33.4566 54.6154 32.6059L55.9954 32.2359L55.9454 33.6159ZM42.2254 6.82586L43.7354 7.04586C46.5382 7.51148 49.1254 8.84131 51.1353 10.8494C53.1452 12.8575 54.4773 15.4435 54.9454 18.2459C55.3154 20.4559 55.5954 22.7859 55.7754 25.1759L55.8354 25.9659L55.0854 26.2059C52.1329 27.1447 49.1277 27.9094 46.0854 28.4959L44.9954 28.7259L44.9454 27.5659C44.5854 20.0459 43.0954 13.1559 40.7354 8.17586L39.9454 6.49586L42.2254 6.82586ZM22.9954 28.6359C23.5054 14.6059 27.9954 5.99586 30.9954 5.99586C33.9954 5.99586 38.4854 14.6059 38.9954 28.6359V29.5759L38.0554 29.6659C35.6654 29.8859 33.2854 30.0059 30.9754 30.0059C28.6654 30.0059 26.3154 29.8959 23.9754 29.6759L22.9954 29.5759V28.6359ZM18.2554 7.04586L19.7654 6.82586L22.0854 6.49586L21.2954 8.17586C18.9354 13.1759 17.4454 20.0459 17.0854 27.5759L16.9954 28.7259L15.8554 28.5059C12.8128 27.921 9.80758 27.1563 6.85545 26.2159L6.16545 25.9959L6.22545 25.2059C6.40545 22.8059 6.68545 20.4759 7.05545 18.2759C7.51726 15.4695 8.8454 12.8778 10.8538 10.864C12.8622 8.85025 15.4503 7.51518 18.2554 7.04586Z" fill="black"/>
</svg>
