<svg width="62" height="62" viewBox="0 0 62 62" fill="none" xmlns="http://www.w3.org/2000/svg">
<path d="M44.7254 1.13572C35.6381 -0.378574 26.3628 -0.378574 17.2754 1.13572C13.2398 1.80718 9.5148 3.72276 6.62105 6.61472C3.72729 9.50668 1.80941 13.2305 1.13545 17.2657C-0.378482 26.3531 -0.378482 35.6283 1.13545 44.7157C1.80691 48.7514 3.72248 52.4764 6.61444 55.3701C9.5064 58.2639 13.2302 60.1818 17.2654 60.8557C26.3534 62.3632 35.6275 62.3632 44.7154 60.8557C48.7511 60.1843 52.4761 58.2687 55.3699 55.3767C58.2636 52.4848 60.1815 48.7609 60.8554 44.7257C61.6117 40.1881 61.993 35.5959 61.9954 30.9957C61.993 26.3955 61.6117 21.8033 60.8554 17.2657C60.1821 13.2319 58.2657 9.50911 55.3739 6.61731C52.4821 3.7255 48.7593 1.80908 44.7254 1.13572ZM54.9454 43.7357C54.4798 46.5385 53.15 49.1257 51.1419 51.1356C49.1338 53.1455 46.5478 54.4776 43.7454 54.9457C39.5315 55.6454 35.2671 55.9966 30.9954 55.9957C26.7272 55.9962 22.4661 55.645 18.2554 54.9457C15.4531 54.4776 12.8671 53.1455 10.859 51.1356C8.85089 49.1257 7.52106 46.5385 7.05545 43.7357C5.64932 35.3006 5.64932 26.6909 7.05545 18.2557C7.52106 15.453 8.85089 12.8658 10.859 10.8559C12.8671 8.84598 15.4531 7.51384 18.2554 7.04572C26.6912 5.64655 35.2997 5.64655 43.7354 7.04572C46.5378 7.51384 49.1238 8.84598 51.1319 10.8559C53.14 12.8658 54.4698 15.453 54.9354 18.2557C55.6382 22.4661 55.9927 26.7271 55.9954 30.9957C55.996 35.264 55.6448 39.5251 54.9454 43.7357Z" fill="black"/>
<path d="M42.6655 24.9958L29.6655 16.9958C28.602 16.341 27.3827 15.9826 26.1341 15.9579C24.8854 15.9331 23.6529 16.2429 22.5643 16.855C21.4758 17.4671 20.5708 18.3593 19.9432 19.4391C19.3157 20.5189 18.9885 21.7469 18.9955 22.9958V38.9958C18.9885 40.2446 19.3157 41.4726 19.9432 42.5524C20.5708 43.6322 21.4758 44.5244 22.5643 45.1365C23.6529 45.7486 24.8854 46.0584 26.1341 46.0336C27.3827 46.0089 28.602 45.6505 29.6655 44.9958L42.6655 36.9958C43.6829 36.369 44.5229 35.4923 45.1056 34.449C45.6883 33.4058 45.9942 32.2307 45.9942 31.0358C45.9942 29.8408 45.6883 28.6657 45.1056 27.6225C44.5229 26.5792 43.6829 25.7025 42.6655 25.0758V24.9958ZM39.5255 31.8058L26.5255 39.8058C26.3689 39.9153 26.1859 39.9809 25.9955 39.9958C25.8288 39.9997 25.6638 39.9619 25.5155 39.8858C25.3562 39.7986 25.2236 39.6697 25.132 39.5129C25.0404 39.3561 24.9932 39.1773 24.9955 38.9958V22.9958C24.9958 22.8186 25.0432 22.6446 25.1328 22.4918C25.2224 22.3389 25.351 22.2126 25.5055 22.1258C25.6549 22.0411 25.8237 21.9963 25.9955 21.9958C26.1793 21.997 26.3592 22.0489 26.5155 22.1458L39.5155 30.1458C39.6602 30.2354 39.7796 30.3606 39.8624 30.5093C39.9452 30.6581 39.9887 30.8255 39.9887 30.9958C39.9887 31.166 39.9452 31.3334 39.8624 31.4822C39.7796 31.6309 39.6602 31.7561 39.5155 31.8458L39.5255 31.8058Z" fill="black"/>
</svg>
