<svg width="62" height="62" viewBox="0 0 62 62" fill="none" xmlns="http://www.w3.org/2000/svg">
<path d="M44.7254 1.136C35.6381 -0.378666 26.3628 -0.378666 17.2754 1.136C13.2404 1.80887 9.51617 3.7249 6.62266 6.61661C3.72916 9.50832 1.81082 13.2314 1.13545 17.266C-0.378482 26.3534 -0.378482 35.6286 1.13545 44.716C1.80691 48.7516 3.72248 52.4766 6.61444 55.3704C9.5064 58.2642 13.2302 60.182 17.2654 60.856C26.3534 62.3633 35.6275 62.3633 44.7154 60.856C48.7505 60.1831 52.4747 58.2671 55.3682 55.3754C58.2617 52.4837 60.1801 48.7606 60.8554 44.726C61.6119 40.1884 61.9932 35.5962 61.9954 30.996C61.9933 26.3958 61.612 21.8036 60.8554 17.266C60.1821 13.2322 58.2657 9.50939 55.3739 6.61758C52.4821 3.72577 48.7593 1.80936 44.7254 1.136ZM54.9454 43.736C54.4792 46.5402 53.1479 49.1284 51.1379 51.1384C49.1278 53.1485 46.5396 54.4798 43.7354 54.946C39.5249 55.6456 35.2638 55.9968 30.9954 55.996C26.7272 55.9964 22.4661 55.6452 18.2554 54.946C15.4531 54.4779 12.8671 53.1457 10.859 51.1358C8.85089 49.1259 7.52106 46.5388 7.05545 43.736C5.64932 35.3009 5.64932 26.6911 7.05545 18.256C7.52106 15.4532 8.85089 12.8661 10.859 10.8562C12.8671 8.84625 15.4531 7.51412 18.2554 7.046C26.6911 5.64574 35.2998 5.64574 43.7354 7.046C46.5396 7.51222 49.1278 8.84351 51.1379 10.8536C53.1479 12.8636 54.4792 15.4518 54.9454 18.256C55.6448 22.4666 55.996 26.7277 55.9954 30.996C55.996 35.2643 55.6448 39.5254 54.9454 43.736Z" fill="black"/>
<path d="M39.9955 30.996H33.9955C33.1998 30.996 32.4368 30.6799 31.8742 30.1173C31.3116 29.5547 30.9955 28.7916 30.9955 27.996V18.996C30.9955 18.2003 30.6794 17.4373 30.1168 16.8747C29.5542 16.312 28.7911 15.996 27.9955 15.996C27.1998 15.996 26.4368 16.312 25.8742 16.8747C25.3116 17.4373 24.9955 18.2003 24.9955 18.996V27.996C24.9955 30.3829 25.9437 32.6721 27.6315 34.3599C29.3194 36.0478 31.6085 36.996 33.9955 36.996H39.9955C40.7911 36.996 41.5542 36.6799 42.1168 36.1173C42.6794 35.5547 42.9955 34.7916 42.9955 33.996C42.9955 33.2003 42.6794 32.4373 42.1168 31.8747C41.5542 31.312 40.7911 30.996 39.9955 30.996Z" fill="black"/>
</svg>
