<svg width="62" height="62" viewBox="0 0 62 62" fill="none" xmlns="http://www.w3.org/2000/svg">
<path d="M19 60.433L44.5 60C45.4445 60.0028 46.6337 59.3781 47.5 59C48.3663 58.6219 49.5294 59.4985 50.1721 58.8029C50.8148 58.1073 51.3072 57.2856 51.6183 56.3894C51.9294 55.4932 52.0524 54.5419 51.9797 53.5956C51.8642 51.9356 51.4662 50.3078 50.803 48.7831C49.8224 46.5179 48.2937 44.5351 46.3561 43.015C45.2223 42.1262 44.0316 41.3132 42.7917 40.5812C44.3551 38.2954 45.1901 35.5861 45.1862 32.8125V30.75C45.1862 27.1033 43.7446 23.6059 41.1786 21.0273C38.6126 18.4487 35.1323 17 31.5034 17H31.2503C27.6357 17.1216 24.2107 18.6547 21.703 21.2736C19.1954 23.8924 17.8026 27.3906 17.8207 31.025V32.8125C17.8167 35.5861 18.6518 38.2954 20.2151 40.5812C18.9741 41.3113 17.7833 42.1244 16.6508 43.015C15.0268 44.2835 13.6863 45.881 12.7163 47.7038C11.7463 49.5266 11.1685 51.5339 11.0203 53.5956C10.9475 54.5425 11.0708 55.4943 11.3823 56.391C11.6938 57.2877 12.1868 58.1098 12.8302 58.8054C13.4736 59.5011 15.1328 59.1223 16 59.5C16.8672 59.8777 18.0549 60.4367 19 60.433ZM17.1844 50.9762C17.8021 49.553 18.7639 48.3076 19.9825 47.3531C21.9341 45.8043 24.1067 44.5597 26.4271 43.6612C26.8867 43.4971 27.2885 43.2013 27.5827 42.8103C27.8769 42.4193 28.0507 41.9503 28.0827 41.4612C28.0661 41.1143 27.9659 40.7767 27.7907 40.4773C27.6155 40.1779 27.3706 39.9257 27.077 39.7425C25.9196 38.9979 24.9668 37.9732 24.3057 36.7624C23.6447 35.5517 23.2968 34.1935 23.2938 32.8125V31.025C23.2671 28.829 24.0945 26.7092 25.5997 25.117C27.1049 23.5248 29.1691 22.5858 31.3529 22.5H31.5034C33.6808 22.5 35.7689 23.3692 37.3085 24.9164C38.8481 26.4635 39.7131 28.5619 39.7131 30.75V32.8125C39.7115 34.1922 39.3657 35.5495 38.7071 36.7602C38.0485 37.9709 37.0984 38.9963 35.9435 39.7425C35.6474 39.9241 35.3998 40.1756 35.2222 40.4751C35.0445 40.7746 34.9422 41.1131 34.9241 41.4612C34.9528 41.9455 35.1206 42.4111 35.4071 42.8015C35.6937 43.192 36.0867 43.4906 36.5387 43.6612C38.8579 44.5624 41.03 45.8068 42.9833 47.3531C44.0092 48.146 44.8575 49.1472 45.4728 50.2914C46.0881 51.4357 46.4567 52.6974 46.5545 53.9943C46.5674 54.1954 46.5374 54.3969 46.4666 54.5854C46.3958 54.7739 46.2858 54.9451 46.144 55.0875C46.0157 55.219 45.8623 55.3233 45.6931 55.3942C45.5238 55.4651 44.1833 56.5011 44 56.5H18C18.1315 57.5 17.8685 56.5 17.3343 55.3942C17.1651 55.3233 17.0117 55.219 16.8834 55.0875C16.7415 54.9451 16.6315 54.7739 16.5607 54.5854C16.49 54.3969 16.46 54.1954 16.4729 53.9943C16.5491 52.9538 16.7989 51.9335 17.2118 50.9762H17.1844Z" fill="black"/>
<path d="M60.8554 17.2656C60.1821 13.2318 58.2657 9.50898 55.3739 6.61717C52.4821 3.72536 48.7593 1.80894 44.7254 1.13558C35.6381 -0.378528 26.3628 -0.378528 17.2754 1.13558C13.2404 1.80845 9.51617 3.72449 6.62266 6.6162C3.72916 9.50791 1.81082 13.231 1.13545 17.2656C-0.378482 26.353 -0.378482 35.6282 1.13545 44.7156C1.80691 48.7512 3.72248 52.4762 6.61444 55.37C9.5064 58.2637 13.2302 60.1816 17.2654 60.8556C26.3534 62.3629 35.6275 62.3629 44.7154 60.8556C48.7505 60.1827 52.4747 58.2667 55.3682 55.375C58.2617 52.4833 60.1801 48.7602 60.8554 44.7256C61.612 40.188 61.9933 35.5958 61.9954 30.9956C61.9933 26.3954 61.612 21.8032 60.8554 17.2656ZM54.9454 43.7356C54.4792 46.5397 53.1479 49.128 51.1379 51.138C49.1278 53.1481 46.5396 54.4794 43.7354 54.9456C39.5248 55.6447 35.2637 55.9959 30.9954 55.9956C26.7272 55.9961 22.4661 55.6449 18.2554 54.9456C15.4513 54.4794 12.8631 53.1481 10.853 51.138C8.84296 49.128 7.51166 46.5397 7.04545 43.7356C5.63932 35.3004 5.63932 26.6907 7.04545 18.2556C7.51166 15.4514 8.84296 12.8632 10.853 10.8532C12.8631 8.8431 15.4513 7.5118 18.2554 7.04558C26.6911 5.64623 35.2998 5.64623 43.7354 7.04558C46.5396 7.5118 49.1278 8.8431 51.1379 10.8532C53.1479 12.8632 54.4792 15.4514 54.9454 18.2556C55.6449 22.4662 55.9961 26.7273 55.9954 30.9956C55.996 35.2639 55.6448 39.525 54.9454 43.7356Z" fill="black"/>
</svg>
