<svg width="60" height="64" viewBox="0 0 60 64" fill="none" xmlns="http://www.w3.org/2000/svg">
<path d="M40 42C42.2091 42 44 40.2091 44 38C44 35.7909 42.2091 34 40 34C37.7909 34 36 35.7909 36 38C36 40.2091 37.7909 42 40 42Z" fill="black"/>
<path d="M0 52C0 58.62 5.38 64 12 64H48C54.62 64 60 58.62 60 52V30C60 23.72 55.15 18.56 49 18.05V10.44C49 4.69 44.32 0 38.56 0C37.95 0 37.34 0.0499998 36.75 0.16L8.7 5.11C3.66 6 0 10.36 0 15.48C0 15.6 0.0100005 15.71 0.0200005 15.83C0.0200005 15.89 0 15.95 0 16.01V52.01V52ZM52 30V52C52 54.21 50.21 56 48 56H12C9.79 56 8 54.21 8 52V25.68C8.81 25.88 9.65 26 10.53 26H48C50.21 26 52 27.79 52 30ZM10.09 12.99L38.14 8.04C38.28 8.02 38.42 8 38.56 8C39.9 8 41 9.09 41 10.44V18H10.53C9.14 18 8 16.87 8 15.47C8 14.24 8.88 13.2 10.09 12.98V12.99Z" fill="black"/>
</svg>
