<svg width="64" height="64" viewBox="0 0 64 64" fill="none" xmlns="http://www.w3.org/2000/svg">
<path d="M50 0H14C10.287 0 6.72602 1.475 4.10051 4.10051C1.475 6.72602 0 10.287 0 14V50C0 53.713 1.475 57.274 4.10051 59.8995C6.72602 62.525 10.287 64 14 64H50C53.713 64 57.274 62.525 59.8995 59.8995C62.525 57.274 64 53.713 64 50V14C64 10.287 62.525 6.72602 59.8995 4.10051C57.274 1.475 53.713 0 50 0ZM28.22 8H39.78L35.78 20H24.22L28.22 8ZM8 14C8 12.4087 8.63214 10.8826 9.75736 9.75736C10.8826 8.63214 12.4087 8 14 8H19.78L15.78 20H8V14ZM56 50C56 51.5913 55.3679 53.1174 54.2426 54.2426C53.1174 55.3679 51.5913 56 50 56H14C12.4087 56 10.8826 55.3679 9.75736 54.2426C8.63214 53.1174 8 51.5913 8 50V28H56V50ZM56 20H44.22L48.22 8H50C51.5913 8 53.1174 8.63214 54.2426 9.75736C55.3679 10.8826 56 12.4087 56 14V20Z" fill="black"/>
</svg>
