<svg width="64" height="60" viewBox="0 0 64 60" fill="none" xmlns="http://www.w3.org/2000/svg">
<path d="M21.96 46.0715C20.96 47.3715 18.35 48.0915 12.54 49.6115L3 52.1015C0.86 52.6615 -0.420001 54.8415 0.139999 56.9815C0.609999 58.7815 2.23 59.9715 4.01 59.9715C4.34 59.9715 4.68 59.9315 5.02 59.8415L14.56 57.3515C21.67 55.5015 25.58 54.4715 28.29 50.9615C31 47.4515 31 43.4015 31 36.0615V33.9715H53.28L45.28 41.9815C43.72 43.5415 43.72 46.0815 45.28 47.6415C46.06 48.4215 47.08 48.8115 48.11 48.8115C49.14 48.8115 50.16 48.4215 50.94 47.6415L60.73 37.8515C62.84 35.7615 64 32.9715 64.01 30.0015C64.01 30.0015 64.01 30.0015 64.01 29.9915C64.01 29.9915 64.01 29.9915 64.01 29.9815C64.01 27.0115 62.85 24.2315 60.75 22.1315L50.85 12.2315C49.29 10.6715 46.76 10.6715 45.19 12.2315C43.63 13.7915 43.63 16.3215 45.19 17.8915L53.3 26.0015H31V23.9115C31 16.5715 31 12.5215 28.29 9.01151C25.58 5.50151 21.66 4.48151 14.56 2.62151L5.02 0.131508C2.88 -0.428492 0.699999 0.851509 0.139999 2.99151C-0.420001 5.13151 0.86 7.31151 3 7.87151L12.54 10.3615C18.35 11.8815 20.96 12.6015 21.96 13.9015C22.96 15.2015 23 17.9015 23 23.9115V26.0015H4C1.79 26.0015 0 27.7915 0 30.0015C0 32.2115 1.79 34.0015 4 34.0015H23V36.0915C23 42.0915 22.96 44.8015 21.96 46.1015V46.0715Z" fill="black"/>
</svg>
