<svg viewBox="0 0 30 31" fill="none" class="lns-logoSvg"><defs><radialGradient id="ai-logo-taskHeader-gradient-1" cx="50%" cy="50%" r="100%" fx="0%" fy="0%"><stop offset="30%" stop-color="#97ACFD"></stop><stop offset="33%" stop-color="#B3B2F4"></stop><stop offset="43%" stop-color="#DEB0E0"></stop><stop offset="50%" stop-color="#DFC6E5"></stop><stop offset="72%" stop-color="#6663F6"></stop></radialGradient><radialGradient id="ai-logo-taskHeader-gradient-2" r="100%" fx="40%" fy="72%"><stop offset="20%" stop-color="#615CF500"></stop><stop offset="32%" stop-color="#615CF550"></stop><stop offset="48%" stop-color="#6663F6"></stop></radialGradient><radialGradient id="ai-logo-taskHeader-gradient-3" r="100%" fx="0%" fy="100%"><stop offset="25%" stop-color="#6663F6"></stop><stop offset="38%" stop-color="#6E68F450"></stop><stop offset="45%" stop-color="#6E68F400"></stop></radialGradient></defs><path d="M30 15.4433C30 16.6091 29.0933 16.8581 27.9562 16.9301C22.5158 17.2323 16.7962 22.686 16.4795 28.112C16.422 29.2634 16.173 30.1702 15.0072 30.1702C13.8414 30.1702 13.578 29.2634 13.5205 28.0976C13.2038 22.686 7.48416 17.2323 2.05814 16.9301C0.906735 16.8581 0 16.6091 0 15.4433C0 14.2775 0.906735 14.043 2.05814 13.971C7.48416 13.6687 13.2038 7.65433 13.5205 2.22831C13.578 1.0769 13.827 0.170166 15.0072 0.170166C16.1874 0.170166 16.422 1.0769 16.4795 2.22831C16.7962 7.65433 22.5158 13.6687 27.9419 13.971C29.0933 14.043 30 14.2919 30 15.4433Z" fill="url(#ai-logo-taskHeader-gradient-1"></path><path d="M30 15.4433C30 16.6091 29.0933 16.8581 27.9562 16.9301C22.5158 17.2323 16.7962 22.686 16.4795 28.112C16.422 29.2634 16.173 30.1702 15.0072 30.1702C13.8414 30.1702 13.578 29.2634 13.5205 28.0976C13.2038 22.686 7.48416 17.2323 2.05814 16.9301C0.906735 16.8581 0 16.6091 0 15.4433C0 14.2775 0.906735 14.043 2.05814 13.971C7.48416 13.6687 13.2038 7.65433 13.5205 2.22831C13.578 1.0769 13.827 0.170166 15.0072 0.170166C16.1874 0.170166 16.422 1.0769 16.4795 2.22831C16.7962 7.65433 22.5158 13.6687 27.9419 13.971C29.0933 14.043 30 14.2919 30 15.4433Z" fill="url(#ai-logo-taskHeader-gradient-2"></path><path d="M30 15.4433C30 16.6091 29.0933 16.8581 27.9562 16.9301C22.5158 17.2323 16.7962 22.686 16.4795 28.112C16.422 29.2634 16.173 30.1702 15.0072 30.1702C13.8414 30.1702 13.578 29.2634 13.5205 28.0976C13.2038 22.686 7.48416 17.2323 2.05814 16.9301C0.906735 16.8581 0 16.6091 0 15.4433C0 14.2775 0.906735 14.043 2.05814 13.971C7.48416 13.6687 13.2038 7.65433 13.5205 2.22831C13.578 1.0769 13.827 0.170166 15.0072 0.170166C16.1874 0.170166 16.422 1.0769 16.4795 2.22831C16.7962 7.65433 22.5158 13.6687 27.9419 13.971C29.0933 14.043 30 14.2919 30 15.4433Z" fill="url(#ai-logo-taskHeader-gradient-3"></path></svg>