<svg width="60" height="63" viewBox="0 0 60 63" fill="none" xmlns="http://www.w3.org/2000/svg">
<path d="M5 4H3C2.20435 4 1.44129 4.31607 0.878679 4.87868C0.31607 5.44129 0 6.20435 0 7C0 7.79565 0.31607 8.55871 0.878679 9.12132C1.44129 9.68393 2.20435 10 3 10H5C7.65216 10 10.1957 11.0536 12.0711 12.9289C13.9464 14.8043 15 17.3478 15 20V45C14.9443 49.5087 16.682 53.8548 19.8307 57.0823C22.9794 60.3098 27.2813 62.1543 31.79 62.21C36.2987 62.2657 40.6448 60.528 43.8723 57.3793C47.0998 54.2306 48.9443 49.9287 49 45.42V44.68L49.72 44.48C52.6718 43.6664 55.2755 41.9075 57.1323 39.4729C58.989 37.0382 59.9963 34.0619 60 31V22C60 20.4087 59.3679 18.8826 58.2426 17.7574C57.1174 16.6321 55.5913 16 54 16H49V3C49 2.20435 48.6839 1.44129 48.1213 0.878679C47.5587 0.31607 46.7956 0 46 0C45.2044 0 44.4413 0.31607 43.8787 0.878679C43.3161 1.44129 43 2.20435 43 3V16H38C36.4087 16 34.8826 16.6321 33.7574 17.7574C32.6321 18.8826 32 20.4087 32 22V31C32.004 34.0563 33.0081 37.0273 34.8588 39.4594C36.7096 41.8916 39.3054 43.6514 42.25 44.47L43.01 44.68V45.47C42.9477 48.3887 41.7284 51.1631 39.6205 53.1829C37.5126 55.2026 34.6887 56.3023 31.77 56.24C28.8513 56.1777 26.0769 54.9584 24.0571 52.8505C22.0374 50.7426 20.9377 47.9187 21 45V20C21 15.7565 19.3143 11.6869 16.3137 8.68629C13.3131 5.68571 9.24346 4 5 4ZM38 30.72V23C38 22.7348 38.1054 22.4804 38.2929 22.2929C38.4804 22.1054 38.7348 22 39 22H53C53.2652 22 53.5196 22.1054 53.7071 22.2929C53.8946 22.4804 54 22.7348 54 23V31C54.0026 32.0985 53.7789 33.1858 53.3429 34.194C52.907 35.2023 52.268 36.11 51.4659 36.8605C50.6637 37.6111 49.7156 38.1884 48.6806 38.5565C47.6456 38.9245 46.5459 39.0755 45.45 39C43.3929 38.8136 41.4823 37.8569 40.1008 36.3214C38.7192 34.786 37.9689 32.7852 38 30.72Z" fill="white"/>
</svg>
