<svg width="64" height="64" viewBox="0 0 64 64" fill="none" xmlns="http://www.w3.org/2000/svg">
<path d="M50 28C57.72 28 64 21.72 64 14C64 6.28 57.72 0 50 0C42.28 0 36 6.28 36 14C36 21.72 42.28 28 50 28ZM50 8C53.31 8 56 10.69 56 14C56 17.31 53.31 20 50 20C46.69 20 44 17.31 44 14C44 10.69 46.69 8 50 8Z" fill="black"/>
<path d="M0 18.55C0 23.76 4.24 28 9.45 28H18.54C23.75 28 27.99 23.76 27.99 18.55V9.46001C27.99 4.25001 23.75 0.0100098 18.54 0.0100098H9.45C4.24 0.0100098 0 4.25001 0 9.46001V18.55ZM8 9.46001C8 8.67001 8.67 8.01001 9.45 8.01001H18.54C19.33 8.01001 19.99 8.68001 19.99 9.46001V18.55C19.99 19.34 19.32 20 18.54 20H9.45C8.66 20 8 19.33 8 18.55V9.46001Z" fill="black"/>
<path d="M0 54.55C0 59.76 4.24 64 9.45 64H18.54C23.75 64 27.99 59.76 27.99 54.55V45.46C27.99 40.25 23.75 36.01 18.54 36.01H9.45C4.24 36.01 0 40.25 0 45.46V54.55ZM8 45.46C8 44.67 8.67 44.01 9.45 44.01H18.54C19.33 44.01 19.99 44.68 19.99 45.46V54.55C19.99 55.34 19.32 56 18.54 56H9.45C8.66 56 8 55.33 8 54.55V45.46Z" fill="black"/>
<path d="M36 54.55C36 59.76 40.24 64 45.45 64H54.54C59.75 64 63.99 59.76 63.99 54.55V45.46C63.99 40.25 59.75 36.01 54.54 36.01H45.45C40.24 36.01 36 40.25 36 45.46V54.55ZM44 45.46C44 44.67 44.67 44.01 45.45 44.01H54.54C55.33 44.01 55.99 44.68 55.99 45.46V54.55C55.99 55.34 55.32 56 54.54 56H45.45C44.66 56 44 55.33 44 54.55V45.46Z" fill="black"/>
</svg>
