<svg width="213" height="200" viewBox="0 0 213 200" fill="none" xmlns="http://www.w3.org/2000/svg">
<path fill-rule="evenodd" clip-rule="evenodd" d="M148 175.897L118 164.897C102 157.897 80 142.897 67 130.897L46 110.897C27 90.8967 11 55.8967 3 26.8967C2 21.8967 0 13.8967 0 8.89668C0 2.89668 5 -2.10332 11 0.896683C17 2.89668 17 8.89668 18 14.8967C19 22.8967 24 38.8967 28 46.8967C35 65.8967 45 85.8967 59 99.8967C73 113.897 76 117.897 92 129.897C101 135.897 109 140.897 118 146.897C130 152.897 168 165.897 183 165.897L165 146.897C158 139.897 154 134.897 147 126.897C137 114.897 130 107.897 121 95.8967C113 84.8967 127 74.8967 135 84.8967C151 105.897 178 137.897 197 155.897C202 159.897 213 169.897 212 177.897C211 183.897 208 185.897 202 186.897C197 186.897 192 189.897 187 190.897L120 198.897C107 200.897 96 198.897 84 197.897C77 197.897 72 197.897 70 192.897C62 175.897 95 179.897 111 178.897C123 177.897 136 177.897 148 175.897Z" fill="black"/>
</svg>
