<svg width="216" height="204" viewBox="0 0 216 204" fill="none" xmlns="http://www.w3.org/2000/svg">
<path fill-rule="evenodd" clip-rule="evenodd" d="M65.253 179.308L95.8098 168.103C112.107 160.974 134.515 145.695 147.756 133.472L169.146 113.101C188.499 92.73 204.796 57.0803 212.944 27.5421C213.963 22.4493 216 14.3008 216 9.20797C216 3.0966 210.907 -1.9962 204.796 1.05948C198.684 3.0966 198.684 9.20797 197.666 15.3193C196.647 23.4678 191.555 39.7648 187.48 47.9133C180.35 67.2659 170.165 87.6372 155.905 101.897C141.645 116.157 138.589 120.231 122.292 132.454C113.125 138.565 104.977 143.658 95.8098 149.769C83.5871 155.881 44.8817 169.122 29.6033 169.122L47.9374 149.769C55.0673 142.639 59.1416 137.547 66.2715 129.398C76.4571 117.175 83.5871 110.046 92.7541 97.8228C100.903 86.6186 86.6427 76.433 78.4942 86.6186C62.1973 108.008 34.6961 140.602 15.3435 158.936C10.2507 163.011 -0.953508 173.196 0.0650527 181.345C1.08361 187.456 4.1393 189.493 10.2507 190.512C15.3435 190.512 20.4363 193.568 25.5291 194.586L93.7727 202.735C107.014 204.772 118.218 202.735 130.441 201.716C137.571 201.716 142.664 201.716 144.701 196.623C152.849 179.308 119.237 183.382 102.94 182.363C90.717 181.345 77.4757 181.345 65.253 179.308Z" fill="black"/>
</svg>
