<svg width="63" height="62" viewBox="0 0 63 62" fill="none" xmlns="http://www.w3.org/2000/svg">
<path d="M28 59C28.0005 59.593 28.1768 60.1725 28.5064 60.6654C28.8361 61.1582 29.3045 61.5423 29.8523 61.7692C30.4002 61.996 31.0029 62.0554 31.5845 61.9399C32.1661 61.8243 32.7005 61.5391 33.12 61.12L39.85 54.39L40.53 54.82C43.3873 56.6386 46.8069 57.3597 50.1552 56.8497C53.5034 56.3397 56.5533 54.6332 58.7396 52.0465C60.9259 49.4598 62.1003 46.1682 62.0453 42.7817C61.9902 39.3953 60.7094 36.1436 58.4402 33.6293C56.1709 31.115 53.0672 29.5086 49.7041 29.1077C46.341 28.7069 42.9466 29.5387 40.15 31.4492C37.3534 33.3597 35.3441 36.2192 34.4946 39.4978C33.6451 42.7765 34.013 46.2519 35.53 49.28L35.86 49.93L28.86 56.93C28.3166 57.483 28.0084 58.2248 28 59ZM48 35C49.5823 35 51.129 35.4692 52.4446 36.3483C53.7602 37.2273 54.7855 38.4767 55.391 39.9386C55.9965 41.4004 56.155 43.0089 55.8463 44.5607C55.5376 46.1126 54.7757 47.5381 53.6569 48.6569C52.538 49.7757 51.1126 50.5376 49.5607 50.8463C48.0089 51.155 46.4003 50.9966 44.9385 50.3911C43.4767 49.7856 42.2273 48.7602 41.3482 47.4446C40.4692 46.129 40 44.5823 40 43C40 40.8783 40.8429 38.8435 42.3431 37.3432C43.8434 35.8429 45.8783 35 48 35Z" fill="black"/>
<path d="M9 55H17C17.7956 55 18.5587 54.6839 19.1213 54.1213C19.6839 53.5587 20 52.7956 20 52C20 51.2044 19.6839 50.4413 19.1213 49.8787C18.5587 49.3161 17.7956 49 17 49H9C8.20435 49 7.44129 48.6839 6.87868 48.1213C6.31607 47.5587 6 46.7956 6 46V9C6 8.20435 6.31607 7.44129 6.87868 6.87868C7.44129 6.31607 8.20435 6 9 6H46C46.7956 6 47.5587 6.31607 48.1213 6.87868C48.6839 7.44129 49 8.20435 49 9V17C49 17.7956 49.3161 18.5587 49.8787 19.1213C50.4413 19.6839 51.2044 20 52 20C52.7956 20 53.5587 19.6839 54.1213 19.1213C54.6839 18.5587 55 17.7956 55 17V9C55 6.61305 54.0518 4.32387 52.364 2.63604C50.6761 0.948212 48.3869 0 46 0H9C6.61305 0 4.32387 0.948212 2.63604 2.63604C0.948212 4.32387 0 6.61305 0 9V46C0 48.3869 0.948212 50.6761 2.63604 52.364C4.32387 54.0518 6.61305 55 9 55Z" fill="black"/>
</svg>
