<svg width="61" height="61" viewBox="0 0 61 61" fill="none" xmlns="http://www.w3.org/2000/svg">
<path d="M30.7 57.4C45.4 57.4 57.4 45.4 57.4 30.7C57.4 16 45.4 4 30.7 4C16 4 4 16 4 30.7C4 45.4 16 57.4 30.7 57.4ZM30.7 9C42.7 9 52.4 18.7 52.4 30.7C52.4 42.7 42.7 52.4 30.7 52.4C18.7 52.4 9 42.7 9 30.7C9 18.7 18.7 9 30.7 9Z" fill="white"/>
<path d="M30.5 61C47.2921 61 61 47.2921 61 30.5C61 13.7079 47.2921 0 30.5 0C13.7079 0 0 13.7079 0 30.5C0 47.2921 13.7079 61 30.5 61ZM30.5 5.71161C44.2079 5.71161 55.2884 16.7921 55.2884 30.5C55.2884 44.2079 44.2079 55.2884 30.5 55.2884C16.7921 55.2884 5.71161 44.2079 5.71161 30.5C5.71161 16.7921 16.7921 5.71161 30.5 5.71161Z" fill="white"/>
</svg>
