<svg width="63" height="56" viewBox="0 0 63 56" fill="none" xmlns="http://www.w3.org/2000/svg">
<path d="M51.8364 6.55C50.699 4.55979 49.0557 2.90568 47.073 1.75537C45.0902 0.605071 42.8386 -0.000519779 40.5464 3.34743e-07H21.5464C19.2541 -0.000519779 17.0025 0.605071 15.0197 1.75537C13.037 2.90568 11.3937 4.55979 10.2564 6.55L1.76636 21.34C0.608825 23.367 0 25.6608 0 27.995C0 30.3292 0.608825 32.623 1.76636 34.65L10.2164 49.44C11.3524 51.4321 12.9952 53.0882 14.978 54.2403C16.9608 55.3924 19.2131 55.9995 21.5064 56H40.5064C42.7986 56.0005 45.0503 55.3949 47.033 54.2446C49.0157 53.0943 50.659 51.4402 51.7964 49.45L60.2464 34.66C61.4039 32.633 62.0127 30.3392 62.0127 28.005C62.0127 25.6708 61.4039 23.377 60.2464 21.35L51.8364 6.55ZM15.4364 9.55C16.045 8.47541 16.9272 7.58098 17.9932 6.95749C19.0593 6.33401 20.2714 6.00367 21.5064 6H41.5064L30.3164 25H6.58636L15.4364 9.55ZM21.5064 50C20.2716 50.0001 19.0588 49.6736 17.991 49.0537C16.9232 48.4337 16.0384 47.5423 15.4264 46.47L6.58636 31H30.3164L41.5464 50H21.5064ZM55.0264 31.68L46.4764 46.68L35.5164 28L46.5164 9.36L55.0664 24.36C55.7075 25.4805 56.0447 26.7491 56.0447 28.04C56.0447 29.331 55.7075 30.5995 55.0664 31.72L55.0264 31.68Z" fill="black"/>
</svg>
