<svg width="62" height="62" viewBox="0 0 62 62" fill="none" xmlns="http://www.w3.org/2000/svg">
<path d="M27.615 16.9915C26.6042 17.1174 25.6759 17.6132 25.0092 18.3833C24.3426 19.1534 23.9848 20.1431 24.005 21.1615V29.9915C24.005 32.1132 24.8478 34.148 26.3481 35.6483C27.8484 37.1486 29.8832 37.9915 32.005 37.9915H38.835C39.8533 38.0116 40.8431 37.6539 41.6132 36.9872C42.3832 36.3205 42.8791 35.3922 43.005 34.3815C43.0595 33.8244 42.9966 33.262 42.8202 32.7307C42.6437 32.1995 42.3578 31.7112 41.9807 31.2974C41.6037 30.8836 41.144 30.5536 40.6314 30.3286C40.1188 30.1037 39.5647 29.9888 39.005 29.9915H32.005V20.9915C32.0076 20.4317 31.8928 19.8776 31.6678 19.365C31.4429 18.8524 31.1128 18.3927 30.699 18.0157C30.2853 17.6387 29.797 17.3527 29.2657 17.1763C28.7344 16.9998 28.1721 16.9369 27.615 16.9915Z" fill="white"/>
<path d="M39.005 1.05137C32.4614 -0.697659 25.525 -0.255419 19.2565 2.31047C12.988 4.87635 7.73242 9.42466 4.29331 15.2599C0.854196 21.0952 -0.579133 27.8962 0.212492 34.6231C1.00412 41.35 3.97713 47.6325 8.67692 52.51C13.3767 57.3874 19.5446 60.5914 26.2375 61.632C32.9304 62.6726 39.78 61.4925 45.7388 58.2722C51.6976 55.0518 56.4377 49.9685 59.2343 43.7995C62.0309 37.6305 62.7301 30.7153 61.225 24.1114C61.1179 23.59 60.9079 23.0953 60.6072 22.6562C60.3065 22.217 59.9212 21.8423 59.4738 21.554C59.0265 21.2657 58.5261 21.0695 58.002 20.977C57.4779 20.8845 56.9406 20.8975 56.4216 21.0153C55.9026 21.1331 55.4123 21.3532 54.9794 21.6629C54.5465 21.9725 54.1798 22.3655 53.9008 22.8187C53.6217 23.2718 53.4359 23.7761 53.3542 24.3021C53.2725 24.828 53.2965 25.3649 53.425 25.8814C54.5402 30.7841 54.0182 35.9172 51.9389 40.495C49.8595 45.0729 46.3373 48.8432 41.9114 51.229C37.4855 53.6147 32.3997 54.4845 27.4325 53.705C22.4654 52.9256 17.8904 50.54 14.408 46.9133C10.9255 43.2866 8.72737 38.6187 8.15004 33.624C7.57272 28.6293 8.64799 23.583 11.2113 19.2575C13.7746 14.932 17.6847 11.5656 22.3431 9.6736C27.0015 7.78158 32.1515 7.46819 37.005 8.78137C38.0043 8.9746 39.0397 8.7796 39.9003 8.23609C40.7609 7.69258 41.3819 6.84144 41.6368 5.85605C41.8918 4.87066 41.7615 3.82513 41.2725 2.93245C40.7835 2.03976 39.9726 1.36706 39.005 1.05137Z" fill="white"/>
</svg>
