<svg width="24" height="24" viewBox="0 0 24 24" fill="none" xmlns="http://www.w3.org/2000/svg"><path fill-rule="evenodd" clip-rule="evenodd" d="M15.3136 2.40636C14.6302 1.72294 13.5222 1.72294 12.8388 2.40636L4.58705 10.6581C3.90363 11.3415 3.90363 12.4495 4.58705 13.133L7.70409 16.25H6.41424C5.95011 16.25 5.50499 16.4344 5.1768 16.7626L1.46969 20.4697C1.25519 20.6842 1.19103 21.0068 1.30711 21.287C1.4232 21.5673 1.69668 21.75 2.00002 21.75H22C22.3034 21.75 22.5768 21.5673 22.6929 21.287C22.809 21.0068 22.7449 20.6842 22.5304 20.4697L18.8232 16.7626C18.4951 16.4344 18.0499 16.25 17.5858 16.25H14.438L20.5602 10.1278C21.2436 9.44439 21.2436 8.33635 20.5602 7.65293L15.3136 2.40636ZM12.938 17.75L12.3085 18.3795C11.6251 19.0629 10.517 19.0629 9.83362 18.3795L9.20409 17.75H6.41424C6.34793 17.75 6.28434 17.7763 6.23746 17.8232L3.81068 20.25H20.1894L17.7626 17.8232C17.7157 17.7763 17.6521 17.75 17.5858 17.75H12.938ZM10.047 16.4716L10.8943 17.3189C10.9919 17.4165 11.1502 17.4165 11.2478 17.3189L19.4996 9.06714C19.5972 8.96951 19.5972 8.81122 19.4996 8.71359L14.253 3.46702C14.1554 3.36939 13.9971 3.36939 13.8994 3.46702L5.64771 11.7187C5.55008 11.8164 5.55008 11.9747 5.64771 12.0723L10.0431 16.4677C10.0444 16.469 10.0457 16.4703 10.047 16.4716Z" fill="currentColor"></path></svg>
