<svg width="84" height="84" viewBox="0 0 84 84" fill="none" xmlns="http://www.w3.org/2000/svg">
<path d="M83.25 13.9C83.25 10.2135 81.7882 6.67797 79.1861 4.07122C76.584 1.46446 73.0549 0 69.375 0H13.875C10.1951 0 6.66596 1.46446 4.06389 4.07122C1.46183 6.67797 0 10.2135 0 13.9V69.5C0 73.1865 1.46183 76.722 4.06389 79.3288C6.66596 81.9355 10.1951 83.4 13.875 83.4H48.4237C48.8825 83.4001 49.3367 83.3079 49.7592 83.129C50.1781 82.9546 50.5587 82.6995 50.8796 82.3784L82.2302 50.9713C82.88 50.3175 83.2464 49.4336 83.25 48.511V13.9ZM6.9375 69.5V13.9C6.9375 12.0567 7.66841 10.289 8.96945 8.98561C10.2705 7.68223 12.0351 6.95 13.875 6.95H69.375C71.2149 6.95 72.9795 7.68223 74.2806 8.98561C75.5816 10.289 76.3125 12.0567 76.3125 13.9V45.036H58.83C55.1501 45.036 51.621 46.5005 49.0189 49.1072C46.4168 51.714 44.955 55.2495 44.955 58.936V76.45H13.875C12.0351 76.45 10.2705 75.7178 8.96945 74.4144C7.66841 73.111 6.9375 71.3433 6.9375 69.5ZM71.4077 51.986L51.8925 71.5364V58.936C51.8925 57.0927 52.6234 55.325 53.9244 54.0216C55.2255 52.7182 56.9901 51.986 58.83 51.986H71.4077Z" fill="white"/>
</svg>
