<svg width="72" height="60" viewBox="0 0 72 60" fill="none" xmlns="http://www.w3.org/2000/svg">
<path d="M21.3794 14.1016H69.1587C70.6797 14.1016 71.9175 12.8638 71.9175 11.3423V3.7417C71.9175 2.2207 70.6797 0.98291 69.1587 0.98291H21.3794C19.8584 0.98291 18.6206 2.2207 18.6206 3.7417V11.3423C18.6206 12.8638 19.8584 14.1016 21.3794 14.1016Z" fill="black"/>
<path d="M2.84131 14.1016H10.4595C11.9805 14.1016 13.2183 12.8638 13.2183 11.3423V3.7417C13.2183 2.2207 11.9805 0.98291 10.4595 0.98291H2.84131C1.32031 0.98291 0.0825195 2.2207 0.0825195 3.7417V11.3423C0.0825195 12.8638 1.32031 14.1016 2.84131 14.1016Z" fill="black"/>
<path d="M2.84131 36.5679H10.4595C11.9805 36.5679 13.2183 35.3301 13.2183 33.8091V26.1909C13.2183 24.6699 11.9805 23.4321 10.4595 23.4321H2.84131C1.32031 23.4321 0.0825195 24.6699 0.0825195 26.1909V33.8091C0.0825195 35.3301 1.32031 36.5679 2.84131 36.5679Z" fill="black"/>
<path d="M21.3794 36.5679H69.1587C70.6797 36.5679 71.9175 35.3301 71.9175 33.8091V26.1909C71.9175 24.6699 70.6797 23.4321 69.1587 23.4321H21.3794C19.8584 23.4321 18.6206 24.6699 18.6206 26.1909V33.8091C18.6206 35.3301 19.8584 36.5679 21.3794 36.5679Z" fill="black"/>
<path d="M21.3794 59.0171H69.1587C70.6797 59.0171 71.9175 57.7793 71.9175 56.2583V48.6577C71.9175 47.1367 70.6797 45.8989 69.1587 45.8989H21.3794C19.8584 45.8989 18.6206 47.1367 18.6206 48.6577V56.2583C18.6206 57.7793 19.8584 59.0171 21.3794 59.0171Z" fill="black"/>
<path d="M2.84131 59.0171H10.4595C11.9805 59.0171 13.2183 57.7793 13.2183 56.2583V48.6577C13.2183 47.1367 11.9805 45.8989 10.4595 45.8989H2.84131C1.32031 45.8989 0.0825195 47.1367 0.0825195 48.6577V56.2583C0.0825195 57.7793 1.32031 59.0171 2.84131 59.0171Z" fill="black"/>
</svg>
