<svg width="54" height="62" viewBox="0 0 54 62" fill="none" xmlns="http://www.w3.org/2000/svg">
<path d="M19.32 60.95C21.35 62.2 24 62.32 26.13 61.26L34.13 57.26C36.52 56.07 38 53.67 38 51V33.9L50.19 21.71C52.65 19.25 54 15.99 54 12.52V7C54 3.14 50.86 0 47 0H7C3.14 0 0 3.14 0 7V12.52C0 15.99 1.35 19.26 3.81 21.71L16 33.9V55C16 57.44 17.24 59.67 19.32 60.95ZM8.05 17.46C6.74 16.15 6 14.37 6 12.51V6.99C6 6.44 6.45 5.99 7 5.99H47C47.55 5.99 48 6.44 48 6.99V12.51C48 14.37 47.26 16.15 45.95 17.46L32 31.41V51C32 51.38 31.79 51.73 31.45 51.89L23.45 55.89C22.79 56.22 22 55.74 22 55V31.41L8.05 17.46Z" fill="black"/>
</svg>
