<svg width="62" height="62" viewBox="0 0 62 62" fill="none" xmlns="http://www.w3.org/2000/svg">
<path d="M34.9958 21.3481L21.3416 35.0023L26.9984 40.6592L40.6526 27.0049L34.9958 21.3481Z" fill="black"/>
<path d="M56.17 0.170044L49.75 6.59004C46.009 4.07654 41.5587 2.83326 37.0567 3.04396C32.5547 3.25465 28.2399 4.90814 24.75 7.76004L30.34 13.35L30.47 13.48C32.9734 11.7691 35.9962 10.987 39.0153 11.2693C42.0344 11.5515 44.8599 12.8802 47.0028 15.0255C49.1457 17.1709 50.4713 19.9978 50.7502 23.0172C51.0291 26.0366 50.2437 29.0585 48.53 31.56L48.66 31.69L54.25 37.28C57.1019 33.7902 58.7554 29.4754 58.9661 24.9734C59.1768 20.4714 57.9335 16.021 55.42 12.28L61.84 5.86004L56.17 0.170044Z" fill="black"/>
<path d="M5.82997 61.8301L12.25 55.4101C15.9909 57.9236 20.4413 59.1669 24.9433 58.9562C29.4453 58.7455 33.7601 57.092 37.25 54.2401L31.66 48.6501L31.53 48.5201C29.0265 50.2311 26.0038 51.0131 22.9847 50.7309C19.9656 50.4486 17.1401 49.1199 14.9972 46.9746C12.8542 44.8293 11.5286 42.0023 11.2498 38.9829C10.9709 35.9635 11.7562 32.9416 13.47 30.4401L13.34 30.3101L7.74997 24.7201C4.89807 28.21 3.24458 32.5247 3.03389 37.0268C2.82319 41.5288 4.06647 45.9791 6.57997 49.7201L0.159973 56.1401L5.82997 61.8301Z" fill="black"/>
<path d="M11.001 5.34095L5.34418 10.9978L18.9984 24.652L24.6553 18.9952L11.001 5.34095Z" fill="black"/>
<path d="M42.9958 37.3409L37.339 42.9978L50.9932 56.652L56.6501 50.9952L42.9958 37.3409Z" fill="black"/>
</svg>
