<svg width="44" height="52" viewBox="0 0 44 52" fill="none" xmlns="http://www.w3.org/2000/svg">
<path d="M8.21 0C6.03165 0.00265006 3.94343 0.869854 2.40405 2.41112C0.864658 3.95238 -1.58938e-06 6.04165 2.25749e-08 8.22V43.78C-0.000109379 45.2555 0.397418 46.7038 1.15077 47.9724C1.90412 49.2411 2.98545 50.2833 4.28102 50.9894C5.57658 51.6955 7.0385 52.0395 8.51299 51.985C9.98748 51.9306 11.42 51.4798 12.66 50.68L40.22 32.9C41.3738 32.156 42.3226 31.1346 42.9797 29.9292C43.6367 28.7238 43.9809 27.3729 43.9809 26C43.9809 24.6271 43.6367 23.2762 42.9797 22.0708C42.3226 20.8654 41.3738 19.844 40.22 19.1L12.66 1.32C11.335 0.460075 9.78959 0.00166187 8.21 0ZM38 26C38.0027 26.369 37.9125 26.7328 37.7378 27.0578C37.563 27.3829 37.3093 27.6587 37 27.86L9.41 45.64C9.07601 45.856 8.68992 45.9778 8.29246 45.9926C7.895 46.0075 7.5009 45.9148 7.15173 45.7243C6.80256 45.5339 6.51126 45.2527 6.30856 44.9105C6.10585 44.5683 5.99925 44.1777 6 43.78V8.22C5.99925 7.82227 6.10585 7.4317 6.30856 7.08949C6.51126 6.74729 6.80256 6.46613 7.15173 6.27568C7.5009 6.08522 7.895 5.99252 8.29246 6.00736C8.68992 6.02221 9.07601 6.14403 9.41 6.36L37 24.14C37.3093 24.3413 37.563 24.6171 37.7378 24.9422C37.9125 25.2672 38.0027 25.631 38 26Z" fill="#FF20E1"/>
</svg>
