<svg width="68" height="68" viewBox="0 0 68 68" fill="none" xmlns="http://www.w3.org/2000/svg">
<path d="M38.4493 4.86C38.4493 2.1759 36.2756 0 33.5943 0C30.9129 0 28.7393 2.1759 28.7393 4.86V62.35C28.7393 65.0341 30.9129 67.21 33.5943 67.21C36.2756 67.21 38.4493 65.0341 38.4493 62.35V4.86Z" fill="#181818"/>
<path d="M62.35 38.46C65.0341 38.46 67.21 36.2863 67.21 33.605C67.21 30.9237 65.0341 28.75 62.35 28.75L4.85996 28.75C2.17586 28.75 -3.8147e-05 30.9237 -3.8147e-05 33.605C-3.8147e-05 36.2863 2.17586 38.46 4.85996 38.46H62.35Z" fill="#181818"/>
</svg>
