<svg width="62" height="62" viewBox="0 0 62 62" fill="none" xmlns="http://www.w3.org/2000/svg">
<path d="M7 62H31C32.8565 62 34.637 61.2625 35.9497 59.9497C37.2625 58.637 38 56.8565 38 55V39C38 37.1435 37.2625 35.363 35.9497 34.0502C34.637 32.7375 32.8565 32 31 32H22.9L19 28.05C18.344 27.394 17.5642 26.875 16.7058 26.5231C15.8474 26.1711 14.9277 25.9933 14 26H7C5.14348 26 3.36301 26.7375 2.05025 28.0502C0.737498 29.363 0 31.1435 0 33V55C0 56.8565 0.737498 58.637 2.05025 59.9497C3.36301 61.2625 5.14348 62 7 62ZM6 33C6 32.7348 6.10536 32.4804 6.29289 32.2929C6.48043 32.1054 6.73478 32 7 32H14C14.1316 31.9992 14.2621 32.0245 14.3839 32.0742C14.5057 32.124 14.6166 32.1973 14.71 32.29L20.12 37.7C20.2134 37.7927 20.3243 37.866 20.4461 37.9158C20.5679 37.9655 20.6984 37.9908 20.83 37.99H31C31.2652 37.99 31.5196 38.0954 31.7071 38.2829C31.8946 38.4704 32 38.7248 32 38.99V55C32 55.2652 31.8946 55.5196 31.7071 55.7071C31.5196 55.8946 31.2652 56 31 56H7C6.73478 56 6.48043 55.8946 6.29289 55.7071C6.10536 55.5196 6 55.2652 6 55V33Z" fill="black"/>
<path d="M51 51H49C48.2044 51 47.4413 51.3161 46.8787 51.8787C46.3161 52.4413 46 53.2044 46 54C46 54.7956 46.3161 55.5587 46.8787 56.1213C47.4413 56.6839 48.2044 57 49 57H51C53.9174 57 56.7153 55.8411 58.7782 53.7782C60.8411 51.7153 62 48.9174 62 46V11C62 8.08262 60.8411 5.28472 58.7782 3.22182C56.7153 1.15892 53.9174 0 51 0H16C13.0826 0 10.2847 1.15892 8.22182 3.22182C6.15892 5.28472 5 8.08262 5 11V15C5 15.7956 5.31607 16.5587 5.87868 17.1213C6.44129 17.6839 7.20435 18 8 18C8.79565 18 9.55871 17.6839 10.1213 17.1213C10.6839 16.5587 11 15.7956 11 15V11C11 9.67392 11.5268 8.40215 12.4645 7.46447C13.4021 6.52678 14.6739 6 16 6H51C52.3261 6 53.5979 6.52678 54.5355 7.46447C55.4732 8.40215 56 9.67392 56 11V46C56 47.3261 55.4732 48.5979 54.5355 49.5355C53.5979 50.4732 52.3261 51 51 51Z" fill="black"/>
</svg>
