<svg width="52" height="44" viewBox="0 0 52 44" fill="none" xmlns="http://www.w3.org/2000/svg">
<path d="M0.917827 19.5C2.41783 17.3 4.21782 15.3 6.01782 13.4C6.61782 12.7 7.61782 12.7 8.11782 13.4C10.0178 15.3 11.7178 17.4 13.2178 19.5L13.8178 20.3C14.4178 21 13.9178 22 13.0178 22H9.81782C10.0178 30.6 17.0178 37.5 25.7178 37.5C28.8178 37.5 31.6178 36.6 34.1178 35.1C35.2178 34.4 36.6178 34.6 37.5178 35.5C38.8178 36.8 38.5178 38.9 37.0178 39.9C33.7178 41.9 29.8178 43.1 25.7178 43.1C13.9178 43.1 4.41781 33.6 4.21781 21.9H1.01782C0.117818 21.9 -0.282185 20.9 0.217815 20.2L0.917827 19.5ZM14.0178 7.7C14.9178 8.6 16.3178 8.8 17.4178 8.1C19.8178 6.6 22.7178 5.7 25.8178 5.7C34.4178 5.7 41.5178 12.6 41.7178 21.2H38.5178C37.6178 21.2 37.2178 22.2 37.7178 22.9L38.3178 23.7C39.8178 25.9 41.6178 27.9 43.4178 29.8C44.0178 30.5 45.0178 30.5 45.5178 29.8C47.4178 27.9 49.1178 25.8 50.6178 23.7L51.2178 22.9C51.8178 22.2 51.3178 21.2 50.4178 21.2H47.2178C47.0178 9.5 37.4178 0 25.7178 0C21.5178 0 17.7178 1.2 14.4178 3.2C12.9178 4.3 12.7178 6.4 14.0178 7.7Z" fill="white"/>
</svg>
