<svg id="svg" version="1.1" xmlns="http://www.w3.org/2000/svg" xmlns:xlink="http://www.w3.org/1999/xlink" width="400" height="400" viewBox="0, 0, 400,400"><g id="svgg"><path id="path0" d="M207.364 36.169 C 199.851 37.879,181.211 50.286,183.270 52.205 C 183.718 52.623,219.679 75.179,220.433 75.515 C 221.137 75.829,224.193 62.796,224.836 56.737 C 226.368 42.301,218.923 33.538,207.364 36.169 M169.729 66.116 C 169.030 67.042,167.759 68.700,166.903 69.800 C 161.876 76.266,156.544 83.307,155.149 85.321 C 153.208 88.124,153.641 87.952,144.000 89.726 C 125.681 93.097,111.970 95.605,108.800 96.166 C 72.035 102.671,69.953 103.172,66.289 106.402 C 62.623 109.635,63.140 108.571,52.382 135.000 C 42.163 160.104,38.268 169.651,35.901 175.400 C 34.813 178.040,32.972 182.540,31.809 185.400 C 30.646 188.260,28.328 193.960,26.658 198.067 C 21.959 209.620,21.160 213.260,21.977 219.397 C 24.779 240.457,44.043 252.491,64.673 246.070 L 67.078 245.322 71.839 248.318 C 74.458 249.966,80.380 253.692,85.000 256.598 C 89.620 259.504,95.470 263.190,98.000 264.789 C 100.530 266.388,102.925 267.900,103.322 268.148 C 103.894 268.506,104.121 268.465,104.413 267.952 C 104.616 267.595,105.561 266.245,106.513 264.952 C 107.465 263.658,109.484 260.890,111.001 258.800 C 112.517 256.710,114.952 253.380,116.412 251.400 C 117.872 249.420,120.025 246.450,121.197 244.800 C 122.369 243.150,124.761 239.867,126.513 237.505 L 129.699 233.209 142.749 239.857 C 149.927 243.513,160.300 248.801,165.800 251.607 C 219.753 279.141,221.211 279.731,237.919 280.795 C 250.019 281.565,253.885 281.040,283.800 274.560 C 289.300 273.369,297.130 271.676,301.200 270.799 C 305.270 269.921,312.346 268.393,316.925 267.402 C 327.681 265.074,326.561 264.865,327.134 269.300 C 329.312 286.179,329.700 288.400,330.466 288.400 C 330.878 288.400,336.297 287.684,342.508 286.809 C 348.718 285.935,356.410 284.870,359.600 284.444 C 375.595 282.308,375.600 282.307,375.598 281.420 C 375.598 280.969,375.318 278.890,374.976 276.800 C 374.635 274.710,373.652 268.140,372.791 262.200 C 371.930 256.260,370.133 244.020,368.798 235.000 C 364.368 205.090,359.957 175.183,357.176 156.200 C 356.047 148.500,355.057 142.131,354.974 142.046 C 354.803 141.869,341.361 143.593,331.650 145.037 C 325.201 145.996,310.211 148.000,309.487 148.000 C 309.267 148.000,309.232 149.298,309.400 151.200 C 309.556 152.960,309.589 154.400,309.473 154.400 C 309.357 154.400,302.634 150.236,294.531 145.148 C 286.429 140.059,274.580 132.617,268.200 128.611 C 257.947 122.173,244.687 113.827,234.400 107.338 C 230.424 104.830,221.068 99.209,216.871 96.807 C 214.857 95.654,214.013 94.954,214.171 94.565 C 214.942 92.664,216.634 93.927,190.113 76.594 C 176.675 67.812,171.382 64.404,171.200 64.417 C 171.090 64.425,170.428 65.189,169.729 66.116 M184.875 92.219 C 190.004 95.419,194.259 98.207,194.332 98.415 C 194.450 98.753,187.643 112.308,183.189 120.606 C 177.401 131.387,173.441 138.572,170.186 144.200 C 164.952 153.249,156.160 168.068,155.530 168.903 C 155.032 169.565,154.432 169.463,145.504 167.203 C 134.434 164.402,130.146 164.079,124.200 165.600 C 122.480 166.040,121.011 166.400,120.936 166.400 C 119.734 166.400,136.638 139.223,148.926 121.400 C 159.835 105.578,174.234 86.400,175.205 86.400 C 175.394 86.400,179.746 89.018,184.875 92.219 M139.200 107.140 C 139.200 107.327,138.626 108.272,137.924 109.240 C 129.060 121.465,116.705 140.714,107.396 156.800 C 100.622 168.505,99.617 170.302,84.792 197.200 C 83.519 199.510,80.096 205.898,77.184 211.395 C 70.771 223.502,70.577 223.815,67.745 226.603 C 57.908 236.283,41.964 232.670,37.908 219.842 C 36.501 215.391,36.040 216.847,48.999 184.800 C 51.356 178.970,55.173 169.520,57.482 163.800 C 59.790 158.080,63.935 147.820,66.693 141.000 C 69.451 134.180,72.337 127.005,73.106 125.055 C 75.584 118.772,76.722 117.980,85.569 116.385 C 88.996 115.767,97.470 114.241,104.400 112.995 C 111.330 111.749,121.770 109.863,127.600 108.804 C 139.581 106.627,139.200 106.681,139.200 107.140 M212.619 113.146 C 217.293 115.624,222.526 118.847,248.400 135.185 C 264.165 145.140,266.910 146.869,272.300 150.238 C 275.325 152.130,278.430 154.088,279.200 154.591 C 279.970 155.093,282.580 156.753,285.000 158.279 C 287.420 159.805,293.295 163.517,298.056 166.527 L 306.711 172.000 309.368 172.000 C 312.603 172.000,311.940 169.905,314.621 188.600 C 317.934 211.709,320.626 230.361,321.983 239.600 C 322.646 244.110,323.191 248.263,323.194 248.829 C 323.200 249.845,323.098 249.879,315.300 251.503 C 310.955 252.409,303.080 254.071,297.800 255.198 C 292.520 256.325,284.780 257.962,280.600 258.836 C 276.420 259.711,270.143 261.062,266.651 261.839 C 246.940 266.224,232.541 265.805,218.234 260.431 C 215.866 259.542,202.830 253.208,189.265 246.356 C 115.377 209.035,121.178 212.099,118.803 209.144 C 110.288 198.548,117.808 181.918,131.400 181.285 C 135.386 181.099,130.218 179.928,182.532 192.871 C 197.736 196.632,200.545 197.223,200.994 196.754 C 202.298 195.389,225.150 161.842,224.971 161.553 C 224.861 161.375,223.293 160.351,221.485 159.277 C 219.678 158.203,216.686 156.387,214.836 155.241 C 212.096 153.544,211.380 153.254,210.977 153.679 C 210.704 153.965,206.764 159.780,202.220 166.600 C 197.675 173.420,193.780 179.062,193.563 179.139 C 193.031 179.326,171.600 173.924,171.600 173.603 C 171.600 173.463,173.387 170.360,175.571 166.707 C 185.905 149.424,198.970 125.757,205.605 112.300 C 206.779 109.918,206.457 109.879,212.619 113.146 M343.537 171.700 C 344.464 178.135,346.018 188.800,346.992 195.400 C 358.535 273.619,357.829 268.612,357.349 268.906 C 356.510 269.420,343.552 271.311,343.216 270.969 C 343.017 270.766,341.946 264.300,340.836 256.600 C 339.726 248.900,337.821 235.760,336.603 227.400 C 335.384 219.040,333.587 206.710,332.610 200.000 C 331.633 193.290,330.019 182.220,329.023 175.400 C 328.027 168.580,327.210 162.619,327.206 162.153 C 327.200 161.305,333.616 160.256,340.026 160.057 L 341.852 160.000 343.537 171.700 M100.951 205.562 C 103.179 213.874,108.254 221.279,114.553 225.406 C 115.998 226.353,116.399 225.645,108.177 236.657 C 99.270 248.588,100.300 247.741,97.140 245.727 C 95.743 244.837,91.675 242.334,88.100 240.164 C 84.525 237.995,81.600 236.083,81.600 235.916 C 81.600 235.516,87.465 224.637,95.404 210.309 C 97.809 205.968,99.887 202.548,100.021 202.709 C 100.155 202.869,100.574 204.153,100.951 205.562 M53.649 262.100 C 49.471 274.761,46.805 289.269,46.796 299.398 L 46.792 303.800 43.629 308.342 C 39.451 314.340,39.162 316.150,41.998 318.537 C 45.341 321.350,49.073 319.525,52.785 313.261 C 54.899 309.692,55.119 309.464,57.616 308.238 C 67.688 303.296,77.810 295.860,88.795 285.334 C 91.215 283.014,93.112 280.982,93.011 280.817 C 92.909 280.652,90.705 279.203,88.113 277.596 C 85.521 275.990,82.500 274.097,81.400 273.390 C 77.776 271.059,55.504 257.200,55.384 257.200 C 55.319 257.200,54.539 259.405,53.649 262.100 " stroke="none" fill="#050505" fill-rule="evenodd"></path><path id="path1" d="M0.000 200.000 L 0.000 400.000 200.000 400.000 L 400.000 400.000 400.000 200.000 L 400.000 0.000 200.000 0.000 L 0.000 0.000 0.000 200.000 M217.071 36.639 C 225.044 40.456,227.309 49.919,223.866 65.024 C 222.154 72.537,221.320 75.479,220.814 75.791 C 220.486 75.994,214.913 72.630,199.000 62.625 C 196.140 60.827,191.235 57.759,188.100 55.808 C 184.965 53.856,182.400 52.123,182.400 51.957 C 182.400 51.790,183.908 50.274,185.751 48.587 C 197.995 37.381,209.475 33.002,217.071 36.639 M182.748 71.300 C 213.075 91.057,215.258 92.534,215.074 93.170 C 214.973 93.517,214.765 94.105,214.611 94.477 C 214.390 95.013,214.859 95.419,216.866 96.428 C 221.184 98.598,231.303 104.853,272.145 130.600 C 275.286 132.580,280.273 135.709,283.228 137.554 C 288.616 140.918,290.313 141.987,302.231 149.530 C 309.883 154.373,309.178 154.252,309.080 150.709 L 309.000 147.818 312.200 147.314 C 313.960 147.037,320.170 146.173,326.000 145.395 C 331.830 144.616,340.421 143.431,345.091 142.761 C 349.761 142.090,353.991 141.600,354.491 141.671 C 355.531 141.819,355.278 140.471,358.795 164.600 C 359.917 172.300,361.187 180.760,361.618 183.400 C 362.048 186.040,362.845 191.440,363.389 195.400 C 363.933 199.360,364.751 204.940,365.206 207.800 C 365.661 210.660,366.642 217.230,367.386 222.400 C 368.130 227.570,369.754 238.640,370.995 247.000 C 377.085 288.019,376.709 282.619,373.500 282.971 C 372.125 283.122,365.420 284.032,358.600 284.993 C 341.221 287.442,331.070 288.800,330.150 288.800 C 329.423 288.800,329.251 287.962,327.871 277.709 C 327.049 271.608,326.232 266.472,326.054 266.294 C 325.876 266.116,317.286 267.788,306.965 270.009 C 296.644 272.231,285.320 274.656,281.800 275.399 C 278.280 276.143,273.870 277.115,272.000 277.561 C 257.435 281.030,244.066 282.226,234.000 280.960 C 223.870 279.686,213.346 276.526,206.200 272.612 C 204.880 271.889,195.340 267.022,185.000 261.797 C 174.660 256.572,163.860 251.089,161.000 249.612 C 138.193 237.834,130.019 233.886,129.441 234.366 C 129.115 234.637,127.406 236.870,125.645 239.329 C 123.884 241.788,120.858 245.976,118.921 248.635 C 116.985 251.294,112.896 256.919,109.836 261.135 C 106.775 265.351,104.118 268.800,103.931 268.800 C 103.744 268.800,101.118 267.247,98.095 265.350 C 91.610 261.278,82.629 255.596,79.775 253.760 C 73.330 249.613,67.387 246.001,67.021 246.009 C 66.789 246.015,65.295 246.366,63.699 246.790 C 46.784 251.290,31.902 244.826,24.581 229.800 C 19.641 219.660,20.069 212.718,26.604 197.024 C 28.940 191.414,37.261 171.058,41.494 160.600 C 44.590 152.951,45.228 151.386,51.763 135.400 C 62.827 108.340,62.016 110.084,64.882 107.174 C 68.055 103.954,70.914 102.597,76.624 101.601 C 79.251 101.143,86.170 99.882,92.000 98.798 C 102.246 96.894,106.388 96.137,124.800 92.800 C 129.530 91.943,137.358 90.512,142.196 89.621 C 147.034 88.729,151.364 88.000,151.819 88.000 C 152.411 88.000,153.671 86.613,156.271 83.100 C 164.124 72.488,170.775 64.000,171.236 64.000 C 171.405 64.000,176.585 67.285,182.748 71.300 M171.800 90.890 C 161.162 104.375,149.558 120.730,138.281 138.134 C 131.686 148.312,121.450 165.183,121.712 165.445 C 121.805 165.538,123.179 165.341,124.767 165.007 C 129.695 163.970,135.572 164.197,141.073 165.637 C 153.245 168.824,154.957 169.191,155.298 168.689 C 155.480 168.420,155.918 167.660,156.270 167.000 C 156.622 166.340,159.340 161.750,162.310 156.800 C 165.279 151.850,168.520 146.360,169.511 144.600 C 170.503 142.840,172.028 140.140,172.900 138.600 C 177.556 130.384,179.698 126.387,188.087 110.265 C 191.443 103.815,193.937 98.578,193.745 98.385 C 193.201 97.843,175.555 86.798,175.262 86.817 C 175.118 86.826,173.560 88.659,171.800 90.890 M137.200 107.517 C 136.650 107.599,133.320 108.199,129.800 108.851 C 126.280 109.503,119.890 110.647,115.600 111.393 C 111.310 112.138,106.990 112.929,106.000 113.149 C 105.010 113.370,99.970 114.277,94.800 115.165 C 74.023 118.736,76.986 116.298,68.987 136.400 C 67.280 140.690,63.644 149.690,60.907 156.400 C 58.171 163.110,55.336 170.130,54.608 172.000 C 53.881 173.870,52.300 177.830,51.095 180.800 C 36.743 216.168,37.267 214.662,38.028 218.346 C 39.866 227.246,49.333 233.563,57.728 231.491 C 65.951 229.462,68.674 226.634,76.308 212.196 C 79.448 206.258,83.104 199.420,84.433 197.000 C 85.761 194.580,87.534 191.340,88.373 189.800 C 107.082 155.429,120.778 132.847,136.474 110.491 C 138.679 107.350,138.693 107.295,137.200 107.517 M202.703 118.875 C 194.071 135.613,183.421 154.676,174.937 168.577 C 173.333 171.205,172.070 173.404,172.131 173.464 C 172.430 173.763,193.278 178.799,193.542 178.636 C 193.710 178.532,197.692 172.676,202.391 165.623 C 207.089 158.570,211.103 152.800,211.310 152.800 C 211.901 152.800,225.600 161.270,225.600 161.636 C 225.600 161.815,224.475 163.585,223.100 165.568 C 221.725 167.552,219.430 170.898,218.000 173.005 C 216.570 175.113,213.801 179.123,211.847 181.918 C 209.892 184.713,206.681 189.385,204.709 192.300 C 202.738 195.215,200.876 197.600,200.572 197.600 C 199.960 197.600,183.452 193.579,160.200 187.767 C 140.090 182.740,134.878 181.600,132.011 181.600 C 118.417 181.600,110.397 199.183,119.431 209.182 C 122.059 212.090,125.918 214.105,200.609 251.570 C 223.449 263.027,229.618 264.758,245.920 264.288 C 253.942 264.057,254.427 263.984,270.200 260.643 C 275.920 259.431,283.210 257.888,286.400 257.212 C 289.590 256.537,294.630 255.451,297.600 254.800 C 302.950 253.626,310.883 251.937,318.600 250.329 C 320.800 249.871,322.661 249.443,322.736 249.378 C 322.908 249.230,321.187 236.690,318.816 220.800 C 317.208 210.025,314.220 189.241,312.979 180.200 C 311.739 171.165,312.163 172.000,308.816 172.000 L 306.007 172.000 300.703 168.660 C 297.787 166.823,292.610 163.557,289.200 161.401 C 273.647 151.569,267.669 147.806,266.000 146.796 C 265.010 146.197,262.490 144.611,260.400 143.270 C 258.310 141.930,255.610 140.221,254.400 139.473 C 253.190 138.725,249.140 136.169,245.400 133.794 C 238.021 129.106,226.503 121.843,221.400 118.659 C 218.363 116.764,208.793 111.479,207.499 110.983 C 207.039 110.806,205.885 112.705,202.703 118.875 M332.900 161.134 C 328.204 161.678,327.600 161.833,327.600 162.497 C 327.600 162.910,328.311 167.961,329.180 173.723 C 330.049 179.486,331.225 187.440,331.792 191.400 C 333.039 200.096,336.004 220.445,338.992 240.800 C 340.203 249.050,341.683 259.190,342.281 263.334 L 343.368 270.868 344.584 270.681 C 353.349 269.334,357.200 268.566,357.200 268.164 C 357.200 267.907,356.755 264.660,356.211 260.948 C 355.668 257.237,354.230 247.388,353.017 239.062 C 351.804 230.736,350.552 222.366,350.234 220.462 C 349.916 218.558,349.541 216.010,349.400 214.800 C 349.259 213.590,348.355 207.380,347.392 201.000 C 346.429 194.620,345.192 186.250,344.644 182.400 C 344.096 178.550,343.149 172.025,342.540 167.900 L 341.433 160.400 339.817 160.461 C 338.928 160.494,335.815 160.797,332.900 161.134 M95.232 211.496 C 92.720 216.063,89.998 220.970,89.182 222.400 C 88.367 223.830,86.412 227.455,84.838 230.456 L 81.976 235.913 90.685 241.256 C 95.475 244.195,99.575 246.640,99.797 246.688 C 100.019 246.737,103.571 242.237,107.690 236.688 L 115.181 226.600 113.490 225.239 C 106.503 219.612,102.674 213.757,100.318 205.096 L 99.800 203.192 95.232 211.496 M57.497 257.931 C 58.431 258.519,63.921 261.960,69.697 265.579 C 75.474 269.197,81.550 273.010,83.200 274.052 C 84.850 275.094,87.865 276.969,89.900 278.218 C 91.935 279.467,93.600 280.625,93.600 280.793 C 93.600 281.366,82.570 291.802,78.386 295.186 C 72.712 299.775,64.222 305.386,59.386 307.741 L 55.400 309.682 53.000 313.659 C 48.085 321.803,40.034 322.478,39.927 314.754 C 39.905 313.114,40.129 312.687,44.098 306.832 L 45.995 304.033 46.380 297.116 C 46.955 286.793,48.825 276.556,52.175 265.400 C 55.066 255.772,54.757 256.206,57.497 257.931 " stroke="none" fill="#f4f4f4" fill-rule="evenodd"></path><path id="path2" d="M210.900 35.476 C 211.285 35.576,211.915 35.576,212.300 35.476 C 212.685 35.375,212.370 35.293,211.600 35.293 C 210.830 35.293,210.515 35.375,210.900 35.476 M184.981 49.300 L 183.400 51.000 185.100 49.419 C 186.035 48.549,186.800 47.784,186.800 47.719 C 186.800 47.416,186.452 47.719,184.981 49.300 M225.340 53.200 C 225.340 55.070,225.409 55.835,225.493 54.900 C 225.577 53.965,225.577 52.435,225.493 51.500 C 225.409 50.565,225.340 51.330,225.340 53.200 M201.000 121.600 C 200.659 122.260,200.469 122.800,200.579 122.800 C 200.689 122.800,201.059 122.260,201.400 121.600 C 201.741 120.940,201.931 120.400,201.821 120.400 C 201.711 120.400,201.341 120.940,201.000 121.600 M332.900 161.076 C 333.285 161.176,333.915 161.176,334.300 161.076 C 334.685 160.975,334.370 160.893,333.600 160.893 C 332.830 160.893,332.515 160.975,332.900 161.076 M329.300 161.476 C 329.685 161.576,330.315 161.576,330.700 161.476 C 331.085 161.375,330.770 161.293,330.000 161.293 C 329.230 161.293,328.915 161.375,329.300 161.476 M53.265 174.617 C 52.595 176.088,52.723 176.402,53.447 175.065 C 53.786 174.440,53.988 173.854,53.896 173.763 C 53.805 173.671,53.521 174.056,53.265 174.617 M131.300 181.487 C 131.905 181.578,132.895 181.578,133.500 181.487 C 134.105 181.395,133.610 181.320,132.400 181.320 C 131.190 181.320,130.695 181.395,131.300 181.487 M115.324 199.000 C 115.326 200.320,115.401 200.812,115.490 200.093 C 115.579 199.374,115.577 198.294,115.486 197.693 C 115.395 197.092,115.322 197.680,115.324 199.000 M118.800 208.925 C 118.800 208.994,119.385 209.579,120.100 210.225 L 121.400 211.400 120.225 210.100 C 119.130 208.888,118.800 208.616,118.800 208.925 M109.400 221.600 C 110.483 222.700,111.460 223.600,111.570 223.600 C 111.680 223.600,110.883 222.700,109.800 221.600 C 108.717 220.500,107.740 219.600,107.630 219.600 C 107.520 219.600,108.317 220.500,109.400 221.600 M67.578 226.300 L 66.200 227.800 67.700 226.422 C 69.096 225.138,69.384 224.800,69.078 224.800 C 69.012 224.800,68.337 225.475,67.578 226.300 M42.000 226.600 C 42.746 227.370,43.447 228.000,43.557 228.000 C 43.667 228.000,43.146 227.370,42.400 226.600 C 41.654 225.830,40.953 225.200,40.843 225.200 C 40.733 225.200,41.254 225.830,42.000 226.600 M156.400 229.379 C 156.400 229.489,156.940 229.859,157.600 230.200 C 158.260 230.541,158.800 230.731,158.800 230.621 C 158.800 230.511,158.260 230.141,157.600 229.800 C 156.940 229.459,156.400 229.269,156.400 229.379 M135.600 236.584 C 135.600 236.694,136.320 237.151,137.200 237.600 C 138.080 238.049,138.800 238.326,138.800 238.216 C 138.800 238.106,138.080 237.649,137.200 237.200 C 136.320 236.751,135.600 236.474,135.600 236.584 M52.300 248.289 C 53.015 248.378,54.185 248.378,54.900 248.289 C 55.615 248.201,55.030 248.128,53.600 248.128 C 52.170 248.128,51.585 248.201,52.300 248.289 M204.800 253.784 C 204.800 253.894,205.520 254.351,206.400 254.800 C 207.280 255.249,208.000 255.526,208.000 255.416 C 208.000 255.306,207.280 254.849,206.400 254.400 C 205.520 253.951,204.800 253.674,204.800 253.784 M212.000 257.600 C 212.770 258.022,213.580 258.366,213.800 258.366 C 214.020 258.366,213.570 258.022,212.800 257.600 C 212.030 257.178,211.220 256.834,211.000 256.834 C 210.780 256.834,211.230 257.178,212.000 257.600 M177.200 257.779 C 177.200 257.889,177.740 258.259,178.400 258.600 C 179.060 258.941,179.600 259.131,179.600 259.021 C 179.600 258.911,179.060 258.541,178.400 258.200 C 177.740 257.859,177.200 257.669,177.200 257.779 M182.000 260.179 C 182.000 260.289,182.540 260.659,183.200 261.000 C 183.860 261.341,184.400 261.531,184.400 261.421 C 184.400 261.311,183.860 260.941,183.200 260.600 C 182.540 260.259,182.000 260.069,182.000 260.179 M241.715 264.696 C 242.988 264.776,244.968 264.775,246.115 264.694 C 247.262 264.614,246.220 264.549,243.800 264.550 C 241.380 264.551,240.442 264.616,241.715 264.696 M206.400 272.597 C 206.400 272.868,209.649 274.484,209.830 274.303 C 209.914 274.219,209.176 273.759,208.191 273.281 C 207.206 272.802,206.400 272.494,206.400 272.597 M234.900 281.076 C 235.285 281.176,235.915 281.176,236.300 281.076 C 236.685 280.975,236.370 280.893,235.600 280.893 C 234.830 280.893,234.515 280.975,234.900 281.076 M251.105 281.083 C 251.602 281.179,252.322 281.175,252.705 281.075 C 253.087 280.975,252.680 280.896,251.800 280.901 C 250.920 280.905,250.607 280.987,251.105 281.083 M241.900 281.493 C 242.835 281.577,244.365 281.577,245.300 281.493 C 246.235 281.409,245.470 281.340,243.600 281.340 C 241.730 281.340,240.965 281.409,241.900 281.493 M85.178 289.100 L 83.800 290.600 85.300 289.222 C 86.696 287.938,86.984 287.600,86.678 287.600 C 86.612 287.600,85.937 288.275,85.178 289.100 M46.893 290.400 C 46.893 291.170,46.975 291.485,47.076 291.100 C 47.176 290.715,47.176 290.085,47.076 289.700 C 46.975 289.315,46.893 289.630,46.893 290.400 M46.520 294.400 C 46.520 295.610,46.595 296.105,46.687 295.500 C 46.778 294.895,46.778 293.905,46.687 293.300 C 46.595 292.695,46.520 293.190,46.520 294.400 M46.070 302.420 C 46.031 303.421,45.776 304.501,45.503 304.820 C 45.215 305.156,45.310 305.130,45.729 304.760 C 46.276 304.275,46.414 303.692,46.296 302.360 L 46.140 300.600 46.070 302.420 " stroke="none" fill="#949494" fill-rule="evenodd"></path><path id="path3" d="M64.975 107.300 L 63.800 108.600 65.100 107.425 C 65.815 106.779,66.400 106.194,66.400 106.125 C 66.400 105.816,66.070 106.088,64.975 107.300 M130.300 164.693 C 131.235 164.777,132.765 164.777,133.700 164.693 C 134.635 164.609,133.870 164.540,132.000 164.540 C 130.130 164.540,129.365 164.609,130.300 164.693 M37.309 216.400 C 37.309 217.390,37.387 217.795,37.482 217.300 C 37.578 216.805,37.578 215.995,37.482 215.500 C 37.387 215.005,37.309 215.410,37.309 216.400 M110.600 222.400 C 111.459 223.280,112.252 224.000,112.362 224.000 C 112.472 224.000,111.859 223.280,111.000 222.400 C 110.141 221.520,109.348 220.800,109.238 220.800 C 109.128 220.800,109.741 221.520,110.600 222.400 M146.400 224.579 C 146.400 224.689,146.940 225.059,147.600 225.400 C 148.260 225.741,148.800 225.931,148.800 225.821 C 148.800 225.711,148.260 225.341,147.600 225.000 C 146.940 224.659,146.400 224.469,146.400 224.579 M31.200 239.000 C 31.946 239.770,32.647 240.400,32.757 240.400 C 32.867 240.400,32.346 239.770,31.600 239.000 C 30.854 238.230,30.153 237.600,30.043 237.600 C 29.933 237.600,30.454 238.230,31.200 239.000 M238.905 281.087 C 239.514 281.179,240.414 281.177,240.905 281.082 C 241.397 280.987,240.900 280.911,239.800 280.914 C 238.700 280.917,238.297 280.995,238.905 281.087 M246.700 281.082 C 247.195 281.178,248.005 281.178,248.500 281.082 C 248.995 280.987,248.590 280.909,247.600 280.909 C 246.610 280.909,246.205 280.987,246.700 281.082 M84.378 289.500 L 83.000 291.000 84.500 289.622 C 85.896 288.338,86.184 288.000,85.878 288.000 C 85.812 288.000,85.137 288.675,84.378 289.500 M46.540 300.800 C 46.540 302.670,46.609 303.435,46.693 302.500 C 46.777 301.565,46.777 300.035,46.693 299.100 C 46.609 298.165,46.540 298.930,46.540 300.800 " stroke="none" fill="#6c6c6c" fill-rule="evenodd"></path><path id="path4" d="M21.301 215.800 C 21.305 216.680,21.387 216.993,21.483 216.495 C 21.579 215.998,21.575 215.278,21.475 214.895 C 21.375 214.513,21.296 214.920,21.301 215.800 " stroke="none" fill="#747474" fill-rule="evenodd"></path></g></svg>