<svg width="66" height="79" viewBox="0 0 66 79" fill="none" xmlns="http://www.w3.org/2000/svg">
<path d="M18.2569 4.34375C16.4624 6.13774 15.2827 8.45439 14.8875 10.9608C14.4922 13.4673 14.9016 16.0346 16.0569 18.2937L16.3869 18.9437L3.38686 31.9437C2.36487 32.9653 1.55415 34.1781 1.00103 35.513C0.447903 36.848 0.163208 38.2788 0.163208 39.7237C0.163208 41.1687 0.447903 42.5995 1.00103 43.9345C1.55415 45.2694 2.36487 46.4822 3.38686 47.5037L16.3869 60.5037L16.0569 61.1537C14.7552 63.699 14.4049 66.6253 15.0692 69.4059C15.7334 72.1864 17.3685 74.6385 19.6801 76.3206C21.9916 78.0026 24.8277 78.8042 27.6778 78.581C30.5278 78.3578 33.2046 77.1244 35.226 75.1029C37.2475 73.0815 38.4809 70.4047 38.7041 67.5547C38.9274 64.7046 38.1258 61.8685 36.4437 59.557C34.7616 57.2454 32.3095 55.6103 29.529 54.9461C26.7484 54.2818 23.8221 54.6321 21.2769 55.9337L20.6269 56.2637L7.11686 42.7037H41.9869L42.2069 43.3937C42.8393 45.3467 43.9621 47.1048 45.468 48.4999C46.974 49.895 48.8126 50.8804 50.8081 51.362C52.8036 51.8435 54.8893 51.8052 56.8658 51.2505C58.8422 50.6958 60.6433 49.6433 62.0969 48.1937C64.3512 45.9394 65.6177 42.8819 65.6177 39.6937C65.6177 36.5056 64.3512 33.4481 62.0969 31.1937C59.8425 28.9394 56.785 27.6729 53.5969 27.6729C50.4087 27.6729 47.3512 28.9394 45.0969 31.1937C43.7536 32.5332 42.7521 34.1761 42.1769 35.9837L41.9869 36.7037H7.11686L20.6369 23.1838L21.2869 23.5137C23.2568 24.5243 25.4679 24.9703 27.6755 24.8022C29.8831 24.6341 32.0012 23.8585 33.7954 22.5613C35.5895 21.264 36.9898 19.4957 37.8414 17.452C38.6929 15.4083 38.9624 13.1688 38.6201 10.9815C38.2777 8.79407 37.3369 6.74402 35.9018 5.05816C34.4666 3.37229 32.593 2.11633 30.4883 1.42926C28.3836 0.742182 26.1299 0.65078 23.9764 1.16516C21.823 1.67953 19.8538 2.77964 18.2869 4.34375H18.2569ZM30.9869 62.3437C31.9703 63.3238 32.5834 64.6145 32.7217 65.996C32.8601 67.3775 32.515 68.7641 31.7454 69.9197C30.9758 71.0752 29.8293 71.9281 28.5012 72.333C27.1732 72.7378 25.7458 72.6696 24.4625 72.1399C23.1791 71.6102 22.1192 70.6519 21.4633 69.4282C20.8074 68.2045 20.5962 66.7912 20.8657 65.4292C21.1351 64.0673 21.8686 62.8409 22.941 61.9591C24.0135 61.0774 25.3585 60.5948 26.7469 60.5937C28.3348 60.5898 29.8595 61.2155 30.9869 62.3337V62.3437ZM49.3669 35.4637C50.3469 34.4803 51.6376 33.8672 53.0191 33.7289C54.4006 33.5905 55.7872 33.9356 56.9428 34.7052C58.0983 35.4748 58.9512 36.6214 59.3561 37.9494C59.7609 39.2774 59.6927 40.7048 59.163 41.9881C58.6333 43.2715 57.675 44.3314 56.4513 44.9873C55.2276 45.6432 53.8143 45.8544 52.4523 45.5849C51.0904 45.3155 49.864 44.582 48.9822 43.5096C48.1005 42.4372 47.618 41.0921 47.6169 39.7037C47.6156 38.1144 48.245 36.5895 49.3669 35.4637ZM30.9869 8.59375C31.9679 9.57596 32.5779 10.868 32.7131 12.2496C32.8482 13.6312 32.5001 15.0169 31.7281 16.1706C30.9561 17.3243 29.8079 18.1746 28.4792 18.5766C27.1504 18.9787 25.7234 18.9075 24.4413 18.3753C23.1592 17.8431 22.1013 16.8828 21.4478 15.658C20.7944 14.4332 20.5859 13.0197 20.8578 11.6584C21.1298 10.2971 21.8653 9.07221 22.9392 8.19246C24.013 7.3127 25.3587 6.83252 26.7469 6.83374C28.3376 6.83514 29.8627 7.46821 30.9869 8.59375Z" fill="black"/>
</svg>
