<svg width="64" height="64" viewBox="0 0 64 64" fill="none" xmlns="http://www.w3.org/2000/svg">
<path d="M20 48H44C46.21 48 48 46.21 48 44C48 41.79 46.21 40 44 40H20C17.79 40 16 41.79 16 44C16 46.21 17.79 48 20 48Z" fill="white"/>
<path d="M1.74 55.26C3.28 58.29 5.7 60.71 8.73 62.25C12.15 63.99 14.68 63.99 20.79 63.99H44.19C48.29 63.99 51.83 63.99 55.25 62.25C58.28 60.71 60.7 58.29 62.24 55.26C63.98 51.84 63.98 48.4 63.98 43.2V30.8C63.98 25.6 63.98 22.16 62.24 18.74C60.7 15.71 58.28 13.29 55.25 11.75C54.5 11.37 53.75 11.08 52.99 10.85V4C52.99 1.79 51.2 0 48.99 0C46.78 0 44.99 1.79 44.99 4V10C44.41 10 43.82 10 43.19 10H35.99V4C35.99 1.79 34.2 0 31.99 0C29.78 0 27.99 1.79 27.99 4V10H20.79C20.16 10 19.57 10 18.99 10V4C18.99 1.79 17.2 0 14.99 0C12.78 0 10.99 1.79 10.99 4V10.85C10.22 11.08 9.47 11.37 8.73 11.75C5.7 13.29 3.28 15.71 1.74 18.74C-2.38419e-07 22.16 0 25.6 0 30.8V43.2C0 48.4 -2.38419e-07 51.84 1.74 55.26ZM8 30.8C8 26.02 8.03 24.01 8.87 22.37C9.64 20.85 10.85 19.65 12.37 18.87C14.02 18.03 16.02 18 20.8 18H43.2C47.98 18 49.99 18.03 51.63 18.87C53.14 19.64 54.35 20.85 55.13 22.37C55.97 24.02 56 26.02 56 30.8V43.2C56 47.98 55.97 49.99 55.13 51.63C54.36 53.15 53.15 54.35 51.63 55.13C49.92 56 47.64 56 44.2 56H20.8C14.92 56 13.97 55.95 12.37 55.13C10.86 54.36 9.65 53.15 8.87 51.63C8.03 49.98 8 47.98 8 43.2V30.8Z" fill="white"/>
</svg>
