<svg width="62" height="62" viewBox="0 0 62 62" fill="none" xmlns="http://www.w3.org/2000/svg">
<path d="M62 29C61.9097 25.059 61.5421 21.1293 60.9 17.24C60.2185 13.206 58.2937 9.48576 55.3946 6.59918C52.4954 3.71259 48.7669 1.80395 44.73 1.13999C35.6426 -0.374301 26.3673 -0.374301 17.28 1.13999C13.2443 1.81145 9.51933 3.72703 6.62557 6.61899C3.73182 9.51095 1.81393 13.2348 1.13997 17.27C-0.375434 26.3606 -0.375434 35.6394 1.13997 44.73C1.81333 48.7638 3.72975 52.4866 6.62156 55.3784C9.51337 58.2702 13.2362 60.1866 17.27 60.86C24.9979 62.1454 32.8678 62.3406 40.65 61.44C41.0448 61.393 41.4258 61.2658 41.7697 61.0664C42.1136 60.8669 42.4131 60.5993 42.65 60.28C43.0075 59.8092 43.2179 59.2433 43.2549 58.6533C43.2918 58.0634 43.1537 57.4756 42.8578 56.9639C42.5618 56.4522 42.1213 56.0393 41.5915 55.7771C41.0618 55.5148 40.4663 55.415 39.88 55.49C32.68 56.3187 25.3996 56.137 18.25 54.95C15.449 54.4825 12.8641 53.1518 10.8561 51.1439C8.84816 49.1359 7.51749 46.5509 7.04997 43.75C5.64329 35.3116 5.64329 26.6984 7.04997 18.26C7.51749 15.4591 8.84816 12.8741 10.8561 10.8661C12.8641 8.85818 15.449 7.52751 18.25 7.05999C26.6857 5.66083 35.2943 5.66083 43.73 7.05999C46.5309 7.52751 49.1159 8.85818 51.1238 10.8661C53.1318 12.8741 54.4625 15.4591 54.93 18.26C55.6356 22.4701 55.9935 26.7312 56 31V33.5C56 34.9587 55.4205 36.3576 54.3891 37.3891C53.3576 38.4205 51.9587 39 50.5 39C49.0413 39 47.6423 38.4205 46.6109 37.3891C45.5794 36.3576 45 34.9587 45 33.5V31C45.0118 27.7649 43.9068 24.6249 41.8717 22.1101C39.8365 19.5953 36.9959 17.8599 33.8295 17.1969C30.6631 16.5339 27.3648 16.984 24.4918 18.471C21.6187 19.9581 19.3468 22.3911 18.0598 25.3591C16.7728 28.3272 16.5494 31.6485 17.4275 34.7621C18.3055 37.8758 20.2312 40.591 22.8793 42.4494C25.5274 44.3077 28.7357 45.1953 31.9624 44.9622C35.1891 44.7291 38.2365 43.3896 40.59 41.17L41.33 40.47L42.01 41.22C43.5673 42.94 45.6093 44.1477 47.8668 44.684C50.1243 45.2202 52.4913 45.0598 54.6558 44.2239C56.8203 43.388 58.6807 41.9158 59.9917 40.0014C61.3028 38.087 62.003 35.8203 62 33.5V29ZM31 39C29.4177 39 27.871 38.5308 26.5554 37.6518C25.2398 36.7727 24.2144 35.5233 23.6089 34.0615C23.0034 32.5997 22.845 30.9911 23.1537 29.4393C23.4624 27.8874 24.2243 26.462 25.3431 25.3431C26.4619 24.2243 27.8874 23.4624 29.4393 23.1537C30.9911 22.845 32.5996 23.0035 34.0614 23.609C35.5232 24.2145 36.7727 25.2398 37.6517 26.5554C38.5308 27.871 39 29.4177 39 31C39 33.1217 38.1571 35.1566 36.6568 36.6568C35.1565 38.1571 33.1217 39 31 39Z" fill="black"/>
</svg>
