<svg width="56" height="56" viewBox="0 0 56 56" fill="none" xmlns="http://www.w3.org/2000/svg">
<path d="M0 12V44C0 47.1826 1.26428 50.2348 3.51472 52.4853C5.76516 54.7357 8.8174 56 12 56H44C47.1826 56 50.2348 54.7357 52.4853 52.4853C54.7357 50.2348 56 47.1826 56 44V12C56 8.8174 54.7357 5.76516 52.4853 3.51472C50.2348 1.26428 47.1826 0 44 0H12C8.8174 0 5.76516 1.26428 3.51472 3.51472C1.26428 5.76516 0 8.8174 0 12ZM48 12V44C48 45.0609 47.5786 46.0783 46.8284 46.8284C46.0783 47.5786 45.0609 48 44 48H12C10.9391 48 9.92172 47.5786 9.17157 46.8284C8.42143 46.0783 8 45.0609 8 44V12C8 10.9391 8.42143 9.92172 9.17157 9.17157C9.92172 8.42143 10.9391 8 12 8H44C45.0609 8 46.0783 8.42143 46.8284 9.17157C47.5786 9.92172 48 10.9391 48 12Z" fill="black"/>
</svg>
