<svg width="71" height="95" viewBox="0 0 71 95" fill="none" xmlns="http://www.w3.org/2000/svg">
<path d="M65.1 0H50.2C47.3 0 44.9 2.4 44.9 5.3V13.8H70.5V5.3C70.4 2.4 68 0 65.1 0Z" fill="black"/>
<path d="M70.5 19.7H44.9V68.7H70.5V19.7Z" fill="black"/>
<path d="M44.9 78.5C44.9 79.6 45.3 80.7 45.9 81.6L54.2 93.2C55 94.3 56.3 95 57.6 95C59 95 60.3 94.3 61 93.2L69.3 81.6C70 80.7 70.3 79.6 70.3 78.5V74.6H44.9V78.5Z" fill="black"/>
<path d="M29 0H5.3C2.4 0 0 2.4 0 5.3V11.4H18C19.6 11.4 20.9 12.7 20.9 14.3C20.9 15.9 19.6 17.2 18 17.2H0V27.6H13.7C15.3 27.6 16.6 28.9 16.6 30.5C16.6 32.1 15.3 33.4 13.7 33.4H0V43.8H13.7C15.3 43.8 16.6 45.1 16.6 46.7C16.6 48.3 15.3 49.6 13.7 49.6H0V60H18C19.6 60 20.9 61.3 20.9 62.9C20.9 64.5 19.6 65.8 18 65.8H0V76.2H13.7C15.3 76.2 16.6 77.5 16.6 79.1C16.6 80.7 15.3 82 13.7 82H0V88.1C0 91 2.4 93.4 5.3 93.4H29C31.9 93.4 34.3 91 34.3 88.1V5.3C34.3 2.4 31.9 0 29 0Z" fill="black"/>
</svg>
