<svg width="60" height="60" viewBox="0 0 60 60" fill="none" xmlns="http://www.w3.org/2000/svg">
<path id="Vector" d="M59.4 41L46.5 28.1L58.9 16.7C59.3 16.3 59.5 15.8 59.5 15.3C59.5 14.8 59.3 14.2 58.9 13.8L47.8 2.7C47 1.9 45.8 1.9 45 2.6L32.6 14.2L19 0.6C18.2 -0.2 17 -0.2 16.2 0.6L0.6 16.2C0.2 16.5 0 17 0 17.6C0 18.2 0.2 18.6 0.6 19L6.6 25L13.4 31.8L1.3 43C0.899999 43.4 0.700001 43.9 0.700001 44.4L0.5 55.7C0.5 56.2 0.7 56.8 1.1 57.2C1.5 57.6 2 57.8 2.5 57.8L13.8 57.6C14.3 57.6 14.8 57.4 15.1 57.1L27.4 45.8L27.9 46.3L41 59.4C41.4 59.8 41.9 60 42.4 60C42.9 60 43.4 59.8 43.8 59.4L59.4 43.8C60.2 43.1 60.2 41.8 59.4 41ZM46.4 6.9L54.7 15.2L43.7 25.3L35.4 17L46.4 6.9ZM13 53.6L4.5 53.8L4.7 45.4L16.3 34.7L24.6 43L13 53.6ZM42.4 55.2L39.2 52L42.5 48.7C43.3 47.9 43.3 46.7 42.5 45.9C41.7 45.1 40.5 45.1 39.7 45.9L36.4 49.2L32.1 44.9L35.4 41.6C36.2 40.8 36.2 39.6 35.4 38.8C34.6 38 33.4 38 32.6 38.8L29.3 42.1L25 37.8L28.3 34.5C29.1 33.7 29.1 32.5 28.3 31.7C27.5 30.9 26.3 30.9 25.5 31.7L22.2 35L17.9 30.7L21.2 27.4C22 26.6 22 25.4 21.2 24.6C20.4 23.8 19.2 23.8 18.4 24.6L15.1 27.9L10.8 23.6L14.1 20.3C14.9 19.5 14.9 18.3 14.1 17.5C13.3 16.7 12.1 16.7 11.3 17.5L8 20.8L4.8 17.6L17.5 4.9L55.1 42.5L42.4 55.2Z" fill="white"/>
</svg>
