<svg width="96" height="96" viewBox="0 0 96 96" fill="none" xmlns="http://www.w3.org/2000/svg">
<path d="M91.9901 66.36L73.6501 48L90.6501 31C94.0568 27.5972 95.9723 22.9806 95.9751 18.1656C95.9779 13.3506 94.0679 8.73168 90.6651 5.32497C87.2624 1.91826 82.6457 0.00281618 77.8307 3.10288e-06C73.0157 -0.00280998 68.3968 1.90724 64.9901 5.30997L47.9901 22.31L29.6301 3.99997C27.0725 1.44499 23.6053 0.00984002 19.9901 0.00984002C16.375 0.00984002 12.9077 1.44499 10.3501 3.99997L3.99013 10.36C1.43515 12.9176 0 16.3848 0 20C0 23.6151 1.43515 27.0824 3.99013 29.64L22.3301 48L14.5301 55.8C11.178 59.1346 8.52045 63.1009 6.71127 67.4694C4.90209 71.8378 3.9772 76.5217 3.99013 81.25V88C3.99013 89.0608 4.41156 90.0783 5.1617 90.8284C5.91185 91.5785 6.92926 92 7.99013 92H14.7401C19.4684 92.0129 24.1523 91.088 28.5207 89.2788C32.8892 87.4697 36.8555 84.8121 40.1901 81.46L47.9901 73.66L66.3501 92C68.9103 94.5501 72.3766 95.9818 75.9901 95.9818C79.6036 95.9818 83.0699 94.5501 85.6301 92L91.9901 85.64C94.5451 83.0824 95.9803 79.6151 95.9803 76C95.9803 72.3848 94.5451 68.9176 91.9901 66.36ZM70.6801 11C72.0964 9.58368 73.9004 8.61856 75.8646 8.22635C77.8288 7.83415 79.8651 8.03242 81.7167 8.79617C83.5683 9.55992 85.1522 10.8549 86.2687 12.5178C87.3852 14.1807 87.9842 16.137 87.9901 18.14C87.9939 19.4748 87.7305 20.7969 87.2152 22.0284C86.7 23.2598 85.9434 24.3756 84.9901 25.31L67.9901 42.31L53.6501 28L70.6801 11ZM34.5301 75.8C31.938 78.4081 28.8541 80.4759 25.457 81.8834C22.0599 83.291 18.4173 84.0104 14.7401 84H11.9901V81.25C11.9797 77.5728 12.6991 73.9302 14.1066 70.5331C15.5142 67.136 17.582 64.0521 20.1901 61.46L27.9901 53.66L42.3301 68L34.5301 75.8ZM86.3501 80L79.9901 86.36C79.4667 86.8885 78.8436 87.308 78.1571 87.5943C77.4705 87.8806 76.734 88.028 75.9901 88.028C75.2463 88.028 74.5098 87.8806 73.8232 87.5943C73.1366 87.308 72.5136 86.8885 71.9901 86.36L40.8101 55.18L9.63013 24C9.10283 23.4758 8.68436 22.8526 8.39881 22.1661C8.11326 21.4796 7.96626 20.7435 7.96626 20C7.96626 19.2565 8.11326 18.5203 8.39881 17.8338C8.68436 17.1474 9.10283 16.5241 9.63013 16L15.9901 9.63997C16.515 9.11387 17.1384 8.69646 17.8248 8.41166C18.5112 8.12687 19.247 7.98027 19.9901 7.98027C20.7333 7.98027 21.4691 8.12687 22.1555 8.41166C22.8418 8.69646 23.4653 9.11387 23.9901 9.63997L28.3301 14L21.1601 21.17C20.4096 21.9205 19.9879 22.9385 19.9879 24C19.9879 25.0614 20.4096 26.0794 21.1601 26.83C21.9107 27.5805 22.9287 28.0022 23.9901 28.0022C25.0516 28.0022 26.0696 27.5805 26.8201 26.83L33.9901 19.66L40.3301 26L37.1601 29.17C36.4096 29.9205 35.9879 30.9385 35.9879 32C35.9879 33.0614 36.4096 34.0794 37.1601 34.83C37.9107 35.5805 38.9287 36.0022 39.9901 36.0022C41.0516 36.0022 42.0696 35.5805 42.8201 34.83L45.9901 31.66L52.3301 38L45.1601 45.17C44.4096 45.9205 43.9879 46.9385 43.9879 48C43.9879 49.0614 44.4096 50.0794 45.1601 50.83C45.9107 51.5805 46.9287 52.0022 47.9901 52.0022C49.0516 52.0022 50.0696 51.5805 50.8201 50.83L57.9901 43.66L64.3301 50L61.1601 53.17C60.4096 53.9205 59.9879 54.9385 59.9879 56C59.9879 57.0614 60.4096 58.0794 61.1601 58.83C61.9107 59.5805 62.9287 60.0022 63.9901 60.0022C65.0516 60.0022 66.0696 59.5805 66.8201 58.83L69.9901 55.66L76.3301 62L69.1601 69.17C68.4096 69.9205 67.9879 70.9385 67.9879 72C67.9879 73.0614 68.4096 74.0794 69.1601 74.83C69.9107 75.5805 70.9287 76.0022 71.9901 76.0022C73.0516 76.0022 74.0696 75.5805 74.8201 74.83L81.9901 67.66L86.3501 72C86.8774 72.5241 87.2959 73.1474 87.5814 73.8338C87.867 74.5203 88.014 75.2565 88.014 76C88.014 76.7435 87.867 77.4796 87.5814 78.1661C87.2959 78.8526 86.8774 79.4758 86.3501 80Z" fill="black"/>
</svg>
