<svg width="79" height="79" viewBox="0 0 79 79" fill="none" xmlns="http://www.w3.org/2000/svg">
<path d="M2.46875 29.625H34.5625C35.9257 29.625 37.0312 28.5195 37.0312 27.1562V2.46875C37.0312 1.10551 35.9257 0 34.5625 0H2.46875C1.10551 0 0 1.10551 0 2.46875V27.1562C0 28.5195 1.10551 29.625 2.46875 29.625ZM5.9375 5.9375H31.0938V23.6875H5.9375V5.9375Z" fill="black"/>
<path d="M76.5312 1H44.4375C43.0743 1 41.9688 2.10551 41.9688 3.46875V42.9688C41.9688 44.332 43.0743 45.4375 44.4375 45.4375H76.5312C77.8945 45.4375 79 44.332 79 42.9688V3.46875C79 2.10551 77.8945 1 76.5312 1ZM73.0625 39.5H47.9062V6.9375H73.0625V39.5Z" fill="black"/>
<path d="M2.46875 79H34.5625C35.9257 79 37.0312 77.8945 37.0312 76.5312V37.0312C37.0312 35.668 35.9257 34.5625 34.5625 34.5625H2.46875C1.10551 34.5625 0 35.668 0 37.0312V76.5312C0 77.8945 1.10551 79 2.46875 79ZM5.9375 40.5H31.0938V73.0625H5.9375V40.5Z" fill="black"/>
<path d="M76.5312 49.375H44.4375C43.0743 49.375 41.9688 50.4805 41.9688 51.8438V76.5312C41.9688 77.8945 43.0743 79 44.4375 79H76.5312C77.8945 79 79 77.8945 79 76.5312V51.8438C79 50.4805 77.8945 49.375 76.5312 49.375ZM73.0625 73.0625H47.9062V55.3125H73.0625V73.0625Z" fill="black"/>
</svg>
