<svg width="56" height="56" viewBox="0 0 56 56" fill="none" xmlns="http://www.w3.org/2000/svg">
<path d="M0 6V50C0 51.5913 0.63214 53.1174 1.75736 54.2426C2.88258 55.3679 4.4087 56 6 56H20C21.5913 56 23.1174 55.3679 24.2426 54.2426C25.3679 53.1174 26 51.5913 26 50V6C26 4.4087 25.3679 2.88258 24.2426 1.75736C23.1174 0.63214 21.5913 0 20 0H6C4.4087 0 2.88258 0.63214 1.75736 1.75736C0.63214 2.88258 0 4.4087 0 6ZM8 8H18V48H8V8Z" fill="black"/>
<path d="M32 6V18C32 19.5913 32.6321 21.1174 33.7574 22.2426C34.8826 23.3679 36.4087 24 38 24H50C51.5913 24 53.1174 23.3679 54.2426 22.2426C55.3679 21.1174 56 19.5913 56 18V6C56 4.4087 55.3679 2.88258 54.2426 1.75736C53.1174 0.63214 51.5913 0 50 0H38C36.4087 0 34.8826 0.63214 33.7574 1.75736C32.6321 2.88258 32 4.4087 32 6ZM40 8H48V16H40V8Z" fill="black"/>
<path d="M32 50C32 51.5913 32.6321 53.1174 33.7574 54.2426C34.8826 55.3679 36.4087 56 38 56H50C51.5913 56 53.1174 55.3679 54.2426 54.2426C55.3679 53.1174 56 51.5913 56 50V38C56 36.4087 55.3679 34.8826 54.2426 33.7574C53.1174 32.6321 51.5913 32 50 32H38C36.4087 32 34.8826 32.6321 33.7574 33.7574C32.6321 34.8826 32 36.4087 32 38V50ZM40 40H48V48H40V40Z" fill="black"/>
</svg>
