<svg width="63" height="63" viewBox="0 0 63 63" fill="none" xmlns="http://www.w3.org/2000/svg">
<path d="M49.01 0C41.84 0 36.01 5.83 36.01 13C36.01 20.17 41.84 26 49.01 26C56.18 26 62.01 20.17 62.01 13C62.01 5.83 56.18 0 49.01 0ZM49.01 20C45.15 20 42.01 16.86 42.01 13C42.01 9.14 45.15 6 49.01 6C52.87 6 56.01 9.14 56.01 13C56.01 16.86 52.87 20 49.01 20Z" fill="black"/>
<path d="M21.51 1.21C19.42 -9.53674e-07 17.01 0 13.01 0C9.01 0 6.6 -9.53674e-07 4.51 1.21C3.14 2 2 3.14 1.21 4.51C9.53674e-07 6.6 0 9.01 0 13.01V49.01C0 53.01 9.53674e-07 55.42 1.21 57.51C2 58.88 3.14 60.02 4.51 60.81C6.6 62.02 9.01 62.02 13.01 62.02C17.01 62.02 19.42 62.02 21.51 60.81C22.88 60.02 24.02 58.88 24.81 57.51C26.02 55.42 26.02 53.01 26.02 49.01V13.01C26.02 9.01 26.02 6.6 24.81 4.51C24.02 3.14 22.88 2 21.51 1.21ZM20.01 49C20.01 52.49 19.97 53.86 19.61 54.5C19.35 54.96 18.97 55.33 18.51 55.6C17.87 55.97 16.5 56 13.01 56C9.52 56 8.15 55.96 7.51 55.6C7.05 55.34 6.68 54.96 6.41 54.5C6.04 53.86 6.01 52.49 6.01 49V13C6.01 9.51 6.05 8.14 6.41 7.5C6.67 7.04 7.05 6.67 7.51 6.4C8.15 6.03 9.52 6 13.01 6C16.5 6 17.87 6.04 18.51 6.4C18.97 6.66 19.34 7.04 19.61 7.5C19.98 8.14 20.01 9.51 20.01 13V49Z" fill="black"/>
<path d="M57.51 37.21C55.42 36 53.01 36 49.01 36C45.01 36 42.6 36 40.51 37.21C39.14 38 38 39.14 37.21 40.51C36 42.6 36 45.01 36 49.01C36 53.01 36 55.42 37.21 57.51C38 58.88 39.14 60.02 40.51 60.81C42.6 62.02 45.01 62.02 49.01 62.02C53.01 62.02 55.42 62.02 57.51 60.81C58.88 60.02 60.02 58.88 60.81 57.51C62.02 55.42 62.02 53.01 62.02 49.01C62.02 45.01 62.02 42.6 60.81 40.51C60.02 39.14 58.88 38 57.51 37.21ZM55.61 54.51C55.35 54.97 54.97 55.34 54.51 55.61C53.87 55.98 52.5 56.01 49.01 56.01C45.52 56.01 44.15 55.97 43.51 55.61C43.05 55.35 42.68 54.97 42.41 54.51C42.04 53.87 42.01 52.5 42.01 49.01C42.01 45.52 42.05 44.15 42.41 43.51C42.67 43.05 43.05 42.68 43.51 42.41C44.15 42.04 45.52 42.01 49.01 42.01C52.5 42.01 53.87 42.05 54.51 42.41C54.97 42.67 55.34 43.05 55.61 43.51C55.98 44.15 56.01 45.52 56.01 49.01C56.01 52.5 55.97 53.87 55.61 54.51Z" fill="black"/>
</svg>
