<svg width="81" height="76" viewBox="0 0 81 76" fill="none" xmlns="http://www.w3.org/2000/svg">
<path fill-rule="evenodd" clip-rule="evenodd" d="M66.4579 40.3755C64.9819 39.5205 64.4769 37.6285 65.3319 36.1515C66.1869 34.6755 68.0799 34.1705 69.5559 35.0255C76.0209 38.7685 80.3718 45.7625 80.3718 53.7635C80.3718 65.7055 70.6758 75.4015 58.7328 75.4015C47.8398 75.4015 38.8159 67.3345 37.3149 56.8545H21.6389C19.9329 56.8545 18.5479 55.4695 18.5479 53.7635C18.5479 52.0575 19.9329 50.6725 21.6389 50.6725H40.1459C40.9719 50.6615 41.7689 50.9825 42.3579 51.5635C42.9459 52.1445 43.2769 52.9365 43.2769 53.7635C43.2769 62.2935 50.2028 69.2195 58.7328 69.2195C67.2638 69.2195 74.1898 62.2935 74.1898 53.7635C74.1898 48.0465 71.0779 43.0505 66.4579 40.3755Z" fill="white"/>
<path fill-rule="evenodd" clip-rule="evenodd" d="M24.7299 21.6423C24.7279 23.3483 23.3409 24.7323 21.6349 24.7303C19.9289 24.7273 18.5449 23.3413 18.5479 21.6343C18.5569 14.1643 22.4379 6.89934 29.3669 2.89934C39.7099 -3.07166 52.9539 0.476344 58.9259 10.8193C64.3719 20.2533 61.8979 32.1023 53.5729 38.6423L61.4109 52.2183C62.2639 53.6953 61.7569 55.5873 60.2789 56.4403C58.8019 57.2933 56.9099 56.7863 56.0569 55.3093L46.8029 39.2813C46.3809 38.5713 46.2599 37.7203 46.4689 36.9203C46.6779 36.1203 47.1979 35.4373 47.9139 35.0243C55.3019 30.7583 57.8369 21.2983 53.5719 13.9103C49.3059 6.52334 39.8459 3.98834 32.4579 8.25334C27.5069 11.1123 24.7369 16.3043 24.7299 21.6423Z" fill="white"/>
<path fill-rule="evenodd" clip-rule="evenodd" d="M29.3701 67.147C30.8491 66.296 32.7401 66.805 33.5921 68.284C34.4431 69.762 33.9341 71.654 32.4551 72.505C25.9811 76.232 17.7491 76.503 10.8201 72.503C0.477091 66.531 -3.07191 53.287 2.89909 42.944C8.34609 33.51 19.8441 29.728 29.6711 33.668L37.5091 20.093C38.3621 18.615 40.2541 18.108 41.7321 18.961C43.2091 19.814 43.7161 21.706 42.8631 23.184L33.6101 39.211C33.2061 39.933 32.5291 40.462 31.7321 40.681C30.9351 40.901 30.0831 40.791 29.3671 40.378C21.9791 36.113 12.5191 38.648 8.25409 46.035C3.98809 53.423 6.52309 62.883 13.9111 67.149C18.8621 70.007 24.7441 69.81 29.3701 67.147Z" fill="white"/>
<path d="M58.7335 63.8108C64.2823 63.8108 68.7805 59.3126 68.7805 53.7638C68.7805 48.215 64.2823 43.7168 58.7335 43.7168C53.1847 43.7168 48.6865 48.215 48.6865 53.7638C48.6865 59.3126 53.1847 63.8108 58.7335 63.8108Z" fill="white"/>
<path fill-rule="evenodd" clip-rule="evenodd" d="M31.4861 26.6623C28.7131 21.8603 30.3611 15.7103 35.1631 12.9383C39.9651 10.1653 46.1151 11.8133 48.8871 16.6153C51.6591 21.4173 50.0121 27.5673 45.2101 30.3393C40.4081 33.1123 34.2581 31.4643 31.4861 26.6623Z" fill="white"/>
<path fill-rule="evenodd" clip-rule="evenodd" d="M30.3398 58.7876C27.5668 63.5896 21.4178 65.2366 16.6158 62.4646C11.8128 59.6916 10.1658 53.5426 12.9378 48.7406C15.7108 43.9386 21.8598 42.2906 26.6618 45.0626C31.4638 47.8356 33.1118 53.9846 30.3398 58.7876Z" fill="white"/>
</svg>
