<svg width="316" height="320" viewBox="0 0 316 320" fill="none" xmlns="http://www.w3.org/2000/svg">
<path d="M295.06 130.97C302.32 109.18 299.82 85.31 288.21 65.49C270.75 35.09 235.65 19.45 201.37 26.81C186.12 9.63 164.21 -0.140004 141.24 -3.49944e-06C106.2 -0.0800035 75.11 22.48 64.33 55.82C41.82 60.43 22.39 74.52 11.02 94.49C-6.56998 124.81 -2.55998 163.03 20.94 189.03C13.68 210.82 16.18 234.69 27.79 254.51C45.25 284.91 80.35 300.55 114.63 293.19C129.87 310.37 151.79 320.14 174.76 319.99C209.82 320.08 240.92 297.5 251.7 264.13C274.21 259.52 293.64 245.43 305.01 225.46C322.58 195.14 318.56 156.95 295.07 130.95L295.06 130.97ZM174.78 299.08C160.75 299.1 147.16 294.19 136.39 285.2C136.88 284.94 137.73 284.47 138.28 284.13L202 247.33C205.26 245.48 207.26 242.01 207.24 238.26V148.43L234.17 163.98C234.46 164.12 234.65 164.4 234.69 164.72V239.11C234.65 272.19 207.86 299.01 174.78 299.08ZM45.94 244.05C38.91 231.91 36.38 217.68 38.79 203.87C39.26 204.15 40.09 204.66 40.68 205L104.4 241.8C107.63 243.69 111.63 243.69 114.87 241.8L192.66 196.88V227.98C192.68 228.3 192.53 228.61 192.28 228.81L127.87 266C99.18 282.52 62.54 272.7 45.95 244.05H45.94ZM29.17 104.96C36.17 92.8 47.22 83.5 60.38 78.67C60.38 79.22 60.35 80.19 60.35 80.87V154.48C60.33 158.22 62.33 161.69 65.58 163.54L143.37 208.45L116.44 224C116.17 224.18 115.83 224.21 115.53 224.08L51.11 186.86C22.48 170.28 12.66 133.65 29.16 104.97L29.17 104.96ZM250.43 156.45L172.64 111.53L199.57 95.99C199.84 95.81 200.18 95.78 200.48 95.91L264.9 133.1C293.58 149.67 303.41 186.36 286.84 215.04C279.83 227.18 268.79 236.48 255.64 241.32V165.51C255.67 161.77 253.68 158.31 250.44 156.45H250.43ZM277.23 116.11C276.76 115.82 275.93 115.32 275.34 114.98L211.62 78.18C208.39 76.29 204.39 76.29 201.15 78.18L123.36 123.1V92C123.34 91.68 123.49 91.37 123.74 91.17L188.15 54.01C216.84 37.46 253.52 47.31 270.06 76.01C277.05 88.13 279.58 102.32 277.21 116.11H277.23ZM108.72 171.54L81.78 155.99C81.49 155.85 81.3 155.57 81.26 155.25V80.86C81.28 47.74 108.15 20.9 141.27 20.92C155.28 20.92 168.84 25.84 179.61 34.8C179.12 35.06 178.28 35.53 177.72 35.87L114 72.67C110.74 74.52 108.74 77.98 108.76 81.73L108.72 171.52V171.54ZM123.35 140L158 119.99L192.65 139.99V180L158 200L123.35 180V140Z" fill="white"/>
</svg>
