<svg width="62" height="62" viewBox="0 0 62 62" fill="none" xmlns="http://www.w3.org/2000/svg">
<path d="M62 27C62 24.0826 60.8411 21.2847 58.7782 19.2218C56.7153 17.1589 53.9174 16 51 16H48V11C48 8.08262 46.8411 5.28472 44.7782 3.22182C42.7153 1.15892 39.9174 0 37 0H11C8.08262 0 5.28472 1.15892 3.22182 3.22182C1.15892 5.28472 0 8.08262 0 11V37C0 39.9174 1.15892 42.7153 3.22182 44.7782C5.28472 46.8411 8.08262 48 11 48H16V51C16 53.9174 17.1589 56.7153 19.2218 58.7782C21.2847 60.8411 24.0826 62 27 62H51C53.9174 62 56.7153 60.8411 58.7782 58.7782C60.8411 56.7153 62 53.9174 62 51V27ZM16 27V42H11C9.67392 42 8.40215 41.4732 7.46447 40.5355C6.52678 39.5979 6 38.3261 6 37V11C6 9.67392 6.52678 8.40215 7.46447 7.46447C8.40215 6.52678 9.67392 6 11 6H37C38.3261 6 39.5979 6.52678 40.5355 7.46447C41.4732 8.40215 42 9.67392 42 11V16H27C24.0826 16 21.2847 17.1589 19.2218 19.2218C17.1589 21.2847 16 24.0826 16 27ZM56 51C56 52.3261 55.4732 53.5979 54.5355 54.5355C53.5979 55.4732 52.3261 56 51 56H27C25.6739 56 24.4021 55.4732 23.4645 54.5355C22.5268 53.5979 22 52.3261 22 51V27C22 25.6739 22.5268 24.4021 23.4645 23.4645C24.4021 22.5268 25.6739 22 27 22H51C52.3261 22 53.5979 22.5268 54.5355 23.4645C55.4732 24.4021 56 25.6739 56 27V51Z" fill="black"/>
</svg>
