<svg width="61" height="61" viewBox="0 0 61 61" fill="none" xmlns="http://www.w3.org/2000/svg">
<path d="M24 12.0137C24.0025 9.81314 23.3999 7.65426 22.258 5.77314C21.1161 3.89203 19.4789 2.36112 17.5255 1.34785C15.5721 0.334572 13.3777 -0.122057 11.1823 0.027898C8.98683 0.177853 6.87488 0.928616 5.0774 2.19809C3.27992 3.46756 1.86612 5.20685 0.990619 7.22576C0.115115 9.24467 -0.18838 11.4654 0.113323 13.6452C0.415025 15.825 1.31031 17.8799 2.70126 19.5851C4.09222 21.2903 5.92528 22.5802 8 23.3137V36.0137C8 40.2572 9.68571 44.3268 12.6863 47.3274C15.6869 50.328 19.7565 52.0137 24 52.0137H36.7C37.6436 54.6826 39.5003 56.9319 41.9419 58.3642C44.3836 59.7965 47.2529 60.3196 50.0429 59.8409C52.8329 59.3622 55.3639 57.9126 57.1884 55.7484C59.013 53.5841 60.0137 50.8445 60.0137 48.0137C60.0137 45.183 59.013 42.4433 57.1884 40.2791C55.3639 38.1148 52.8329 36.6652 50.0429 36.1865C47.2529 35.7078 44.3836 36.2309 41.9419 37.6632C39.5003 39.0955 37.6436 41.3449 36.7 44.0137H24C21.8783 44.0137 19.8434 43.1709 18.3431 41.6706C16.8429 40.1703 16 38.1354 16 36.0137V23.3137C18.3374 22.4873 20.3615 20.9572 21.794 18.9338C23.2265 16.9104 23.9972 14.4929 24 12.0137ZM48 44.0137C48.7911 44.0137 49.5645 44.2483 50.2223 44.6878C50.8801 45.1274 51.3928 45.7521 51.6955 46.483C51.9983 47.2139 52.0775 48.0182 51.9231 48.7941C51.7688 49.57 51.3878 50.2827 50.8284 50.8421C50.269 51.4016 49.5563 51.7825 48.7804 51.9369C48.0044 52.0912 47.2002 52.012 46.4693 51.7092C45.7384 51.4065 45.1136 50.8938 44.6741 50.236C44.2346 49.5782 44 48.8048 44 48.0137C44 46.9528 44.4214 45.9354 45.1716 45.1853C45.9217 44.4351 46.9391 44.0137 48 44.0137ZM12 16.0137C11.2089 16.0137 10.4355 15.7791 9.77772 15.3396C9.11992 14.9001 8.60723 14.2753 8.30448 13.5444C8.00173 12.8135 7.92251 12.0093 8.07686 11.2333C8.2312 10.4574 8.61216 9.74469 9.17157 9.18528C9.73098 8.62587 10.4437 8.24491 11.2196 8.09057C11.9956 7.93623 12.7998 8.01544 13.5307 8.31819C14.2616 8.62094 14.8863 9.13363 15.3259 9.79143C15.7654 10.4492 16 11.2226 16 12.0137C16 13.0746 15.5786 14.092 14.8284 14.8421C14.0783 15.5923 13.0609 16.0137 12 16.0137Z" fill="black"/>
</svg>
