<svg width="53" height="70" viewBox="0 0 53 70" fill="none" xmlns="http://www.w3.org/2000/svg">
<path d="M31.0576 6.00001V29.89H46.1176L21.0576 63.78V39.89H5.99765L31.0576 6.00001ZM31.0576 4.86781e-06C30.1186 -0.00119124 29.1923 0.218058 28.3534 0.640112C27.5145 1.06217 26.7864 1.67524 26.2276 2.43001L1.17765 36.32C0.516668 37.2129 0.11654 38.2717 0.0218424 39.3785C-0.0728554 40.4854 0.141594 41.5968 0.641302 42.589C1.14101 43.5811 1.90635 44.4151 2.85207 44.9979C3.79779 45.5807 4.88676 45.8896 5.99765 45.89H15.0576V63.78C15.0583 65.0419 15.4568 66.2714 16.1965 67.2938C16.9362 68.3162 17.9793 69.0793 19.1777 69.4747C20.376 69.8701 21.6685 69.8776 22.8713 69.4961C24.0742 69.1147 25.1262 68.3637 25.8776 67.35L50.8776 33.57C51.5674 32.6818 51.9937 31.6175 52.1078 30.4987C52.2219 29.3799 52.0192 28.2515 51.523 27.2423C51.0267 26.2331 50.2568 25.3837 49.3011 24.791C48.3453 24.1983 47.2423 23.8861 46.1176 23.89H37.0576V6.00001C37.0576 4.40871 36.4255 2.88258 35.3003 1.75736C34.1751 0.632146 32.6489 4.86781e-06 31.0576 4.86781e-06Z" fill="black"/>
</svg>
