<svg width="45" height="34" viewBox="0 0 45 34" fill="none" xmlns="http://www.w3.org/2000/svg">
<path fill-rule="evenodd" clip-rule="evenodd" d="M39.0708 17C39.0708 7.611 31.4598 0 22.0708 0C17.3768 0 13.1268 1.903 10.0498 4.979L12.8778 7.808C15.2308 5.455 18.4808 4 22.0698 4C29.2498 4 35.0698 9.82 35.0698 17H29.9988L37.0698 24.071L44.1408 17H39.0708Z" fill="black"/>
<path fill-rule="evenodd" clip-rule="evenodd" d="M22.071 30.0007C14.891 30.0007 9.071 24.1807 9.071 17.0007H14.142L7.071 9.92969L0 17.0007H5.071C5.071 26.3897 12.682 34.0007 22.071 34.0007C26.765 34.0007 31.015 32.0987 34.092 29.0217L31.264 26.1937C28.911 28.5457 25.661 30.0007 22.071 30.0007Z" fill="black"/>
</svg>
