<svg width="136" height="52" viewBox="0 0 136 52" fill="none" xmlns="http://www.w3.org/2000/svg">
<path d="M0.333333 26C0.333333 36.3093 8.69068 44.6667 19 44.6667C29.3093 44.6667 37.6667 36.3093 37.6667 26C37.6667 15.6907 29.3093 7.33333 19 7.33333C8.69068 7.33333 0.333333 15.6907 0.333333 26ZM134.475 28.4749C135.842 27.108 135.842 24.892 134.475 23.5251L112.201 1.25126C110.834 -0.115572 108.618 -0.115572 107.251 1.25126C105.884 2.6181 105.884 4.83418 107.251 6.20101L127.05 26L107.251 45.799C105.884 47.1658 105.884 49.3819 107.251 50.7487C108.618 52.1156 110.834 52.1156 112.201 50.7487L134.475 28.4749ZM19 29.5H132V22.5H19V29.5Z" fill="black"/>
</svg>
