<svg width="62" height="54" viewBox="0 0 62 54" fill="none" xmlns="http://www.w3.org/2000/svg">
<path d="M47.51 5.01086e-05C46.0016 -0.00442003 44.5073 0.290235 43.1136 0.866969C41.7198 1.4437 40.4542 2.29107 39.39 3.36005L24.22 18.5401C23.1968 19.5584 22.3854 20.7693 21.8327 22.1029C21.28 23.4365 20.997 24.8664 21 26.3101V38H32.69C34.1353 38.0044 35.5671 37.722 36.9025 37.1693C38.238 36.6166 39.4505 35.8045 40.47 34.78L55.64 19.6101C57.2457 18.0026 58.3387 15.9552 58.7809 13.7266C59.2232 11.4981 58.9948 9.18844 58.1247 7.08966C57.2546 4.99087 55.7818 3.19717 53.8924 1.93526C52.0031 0.67336 49.782 -8.61042e-05 47.51 5.01086e-05ZM51.39 15.3601L36.22 30.5401C35.283 31.4747 34.0135 31.9998 32.69 32H27V26.3101C26.9988 25.653 27.1272 25.0022 27.3777 24.3947C27.6282 23.7873 27.996 23.2352 28.46 22.7701L43.64 7.61005C44.1433 7.07323 44.7494 6.64306 45.4222 6.34511C46.095 6.04717 46.8209 5.88752 47.5567 5.87566C48.2924 5.8638 49.023 5.99998 49.7051 6.27609C50.3872 6.5522 51.0068 6.96261 51.5271 7.48293C52.0475 8.00326 52.4579 8.62287 52.734 9.30496C53.0101 9.98704 53.1463 10.7177 53.1344 11.4534C53.1225 12.1892 52.9629 12.915 52.665 13.5879C52.367 14.2607 51.9368 14.8668 51.4 15.37L51.39 15.3601Z" fill="black"/>
<path d="M11 54H62V48H11C9.67392 48 8.40215 47.4732 7.46447 46.5355C6.52678 45.5979 6 44.3261 6 43C6 41.6739 6.52678 40.4021 7.46447 39.4645C8.40215 38.5268 9.67392 38 11 38H14V32H11C8.08262 32 5.28472 33.1589 3.22182 35.2218C1.15892 37.2847 0 40.0826 0 43C0 45.9174 1.15892 48.7153 3.22182 50.7782C5.28472 52.8411 8.08262 54 11 54Z" fill="black"/>
</svg>
