<svg width="48" height="37" viewBox="0 0 48 37" fill="none" xmlns="http://www.w3.org/2000/svg">
<path d="M2.15255 16.0249H45.8475C46.7177 16.0249 47.5027 15.5011 47.8361 14.6983C48.1695 13.8947 47.9848 12.9699 47.3689 12.3555L35.6296 0.629676C34.7891 -0.209892 33.4274 -0.209892 32.5861 0.629676C31.7447 1.46924 31.7455 2.82944 32.5861 3.66979L40.6517 11.7262H2.15255C0.963755 11.7262 0.000356548 12.6885 0.000356548 13.8759C0.000356548 15.0634 0.963755 16.0249 2.15255 16.0249ZM45.8475 20.9747H2.15255C1.28228 20.9747 0.497316 21.4985 0.163923 22.3013C-0.169471 23.1049 0.015226 24.0297 0.631143 24.6441L12.3704 36.3699C12.7906 36.7897 13.3408 37 13.8918 37C14.4427 37 14.9929 36.7897 15.4132 36.3699C16.2537 35.5304 16.2537 34.1702 15.4132 33.3298L7.34832 25.2742H45.8475C47.0363 25.2742 47.9996 24.3119 47.9996 23.1245C47.9996 21.937 47.0363 20.9747 45.8475 20.9747Z" fill="black"/>
</svg>
