<svg width="63" height="47" viewBox="0 0 63 47" fill="none" xmlns="http://www.w3.org/2000/svg">
<path d="M60.8403 1.35752C60.6203 1.08752 60.2803 0.96752 59.9503 1.00752C59.8703 1.00752 59.8003 1.02752 59.7303 1.04752L1.74026 16.8175C1.31026 16.9375 1.01026 17.3175 1.00026 17.7575C0.990259 18.1975 1.27026 18.5975 1.69026 18.7375L22.9103 25.6875L21.0103 40.8675C20.9603 41.2675 21.1503 41.6575 21.5003 41.8575C21.6603 41.9475 21.8303 41.9875 22.0003 41.9875C22.2103 41.9875 22.4303 41.9175 22.6103 41.7775L30.3703 35.8275L37.1803 45.5475C37.3703 45.8175 37.6703 45.9775 38.0003 45.9775C38.0203 45.9775 38.0403 45.9775 38.0703 45.9775C38.4203 45.9575 38.7303 45.7475 38.8903 45.4375L60.9503 2.43752C61.1303 2.08752 61.0903 1.66752 60.8403 1.35752ZM53.8903 4.69752L23.8603 23.8875L5.48026 17.8675L53.8903 4.69752ZM23.2903 38.7375L24.6703 27.6875L29.2203 34.1975L23.2903 38.7375ZM37.8703 43.0575L25.4203 25.2675L57.5203 4.75752L37.8703 43.0575Z" fill="black" stroke="black" stroke-width="2"/>
</svg>
