<svg width="48" height="41" viewBox="0 0 48 41" fill="none" xmlns="http://www.w3.org/2000/svg">
<path d="M4.46082 13.1993L6.16082 12.6993L3.76083 4.7993L5.46082 4.2993C6.06082 4.0993 6.46083 3.3993 6.26083 2.7993C6.06083 2.0993 5.46083 1.7993 4.76083 1.9993L0.860825 3.1993C0.160825 3.3993 -0.139175 4.0993 0.060825 4.6993C0.260825 5.2993 0.960825 5.6993 1.56082 5.4993L2.06082 5.2993L4.46082 13.1993Z" fill="black"/>
<path d="M25.1606 5.4996L27.7606 6.3996L28.5606 3.6996C29.3606 3.8996 30.1606 3.4996 30.4606 2.7996C30.7606 1.9996 30.3606 1.1996 29.5606 0.899605L27.2606 0.0996047C26.4606 -0.200395 25.6606 0.199605 25.3606 0.999605C25.0606 1.7996 25.4606 2.5996 26.2606 2.8996L25.1606 5.4996Z" fill="black"/>
<path d="M27.361 7.79941L24.661 6.89941L24.061 8.39941L26.961 9.39941L27.361 7.79941Z" fill="black"/>
<path d="M34.9607 22.8992L29.7607 28.0992C28.9607 27.5992 28.2607 27.0992 27.6607 26.6992C30.6607 20.0992 30.5607 20.3992 30.6607 20.1992C30.4607 20.0992 27.0607 18.4992 27.1607 18.5992C27.0607 18.7992 27.1607 18.4992 24.2607 24.7992C23.7607 24.4992 23.2607 24.2992 22.6607 24.0992L26.5607 10.7992L23.5607 9.69922L18.3607 22.4992C18.0607 22.3992 17.7607 22.2992 17.4607 22.2992C17.3607 22.2992 17.2607 22.2992 17.2607 22.2992L16.7607 11.8992H14.2607L13.6607 22.0992C12.5607 22.2992 11.5607 22.5992 10.6607 23.0992L7.76074 13.5992V13.4992L3.76074 14.6992V14.7992L7.16074 25.8992C2.86074 31.4992 5.96074 40.1992 12.6607 40.1992H28.4607C30.8607 40.1992 33.1607 38.9992 34.4607 36.8992C34.5607 36.7992 34.5607 36.6992 34.5607 36.6992C36.1607 34.6992 34.4607 32.2992 32.2607 30.1992L37.1607 25.2992L34.9607 22.8992Z" fill="black"/>
<path d="M47.6608 14.2998L45.9608 12.5998C45.5608 12.1998 44.8608 12.1998 44.4608 12.5998C44.0608 12.9998 44.0608 13.6998 44.4608 14.0998L44.6608 14.2998C44.1608 14.7998 42.7608 16.4998 40.0608 17.9998C39.9608 17.9998 39.8608 18.0998 39.8608 18.1998L35.8608 22.1998L38.1608 24.4998L42.1608 20.4998C42.2608 20.3998 42.2608 20.3998 42.3608 20.2998C43.8608 17.6998 45.4608 16.2998 46.0608 15.6998L46.2608 15.8998C46.6608 16.2998 47.3608 16.2998 47.7608 15.8998C48.0608 15.3998 48.0608 14.6998 47.6608 14.2998Z" fill="black"/>
<path d="M28.2608 17.8992C28.3608 17.8992 28.5608 17.8992 28.6608 17.8992L30.0608 18.4992C30.6608 19.0992 29.5608 19.6992 33.9608 10.8992C34.0608 10.6992 33.9608 10.3992 33.6608 10.2992L33.5608 10.1992L35.1608 6.59916L36.1608 6.99916C36.6608 7.19916 37.1608 6.99916 37.3608 6.59916L37.5608 6.29916C37.7608 5.79916 37.5608 5.29916 37.1608 5.09916L34.3608 3.79916C33.8608 3.59916 33.3608 3.79916 33.1608 4.19916L32.9608 4.59916C32.7608 5.09916 32.9608 5.59916 33.3608 5.79916L34.2608 6.19916L32.6608 9.79916L32.5608 9.69916C32.2608 9.59916 31.9608 9.69916 31.8608 9.89916C31.7608 10.2992 28.0608 18.2992 28.2608 17.8992Z" fill="black"/>
<path d="M16.3608 4.89961C16.3608 4.39961 15.9608 4.09961 15.4608 4.09961C14.9608 4.09961 14.5608 4.49961 14.5608 4.89961L14.3608 8.59961H16.5608L16.3608 4.89961Z" fill="black"/>
<path d="M16.5607 9.59961H14.2607V10.7996H16.6607L16.5607 9.59961Z" fill="black"/>
</svg>
